<?xml version="1.0" encoding="UTF-8"?>
<svg xmlns="http://www.w3.org/2000/svg" version="1.1" viewBox="0 0 800 800">
  <defs>
    <style>
      .cls-1 {
        fill: #2f2e41;
      }

      .cls-2 {
        fill: #fff;
      }

      .cls-3 {
        fill: #3f3d56;
      }

      .cls-4 {
        fill: #f2f2f2;
      }

      .cls-5 {
        fill: #a0616a;
      }

      .cls-6 {
        fill: #6c63ff;
      }

      .cls-7 {
        fill: #b7b7b7;
      }

      .cls-8 {
        fill: #e6e6e6;
      }
    </style>
  </defs>
  <!-- Generator: Adobe Illustrator 28.7.1, SVG Export Plug-In . SVG Version: 1.2.0 Build 142)  -->
  <g>
    <g id="Capa_1">
      <rect class="cls-7" x="1" y="1.8" width="798.3" height="798.3"/>
      <path class="cls-4" d="M350,372.1c-91.1,0-165-73.9-165-165S258.9,42,350,42s165,73.9,165,165c-.1,91.1-73.9,164.9-165,165ZM350,44.6c-89.7,0-162.4,72.7-162.4,162.4s72.7,162.4,162.4,162.4,162.4-72.7,162.4-162.4h0c-.1-89.7-72.8-162.3-162.4-162.4h0Z"/>
      <path class="cls-3" d="M362.6,243.2h105.8c.7,0,1.3-.6,1.3-1.3s-.6-1.3-1.3-1.3h-105.8c-.7,0-1.3.6-1.3,1.3s.6,1.3,1.3,1.3Z"/>
      <path class="cls-2" d="M494.8,239.3c-18.4,0-33.3,14.9-33.3,33.3v141.3c0,18.4,14.9,33.3,33.3,33.3h219.3c18.4,0,33.3-14.9,33.3-33.3v-141.3c0-18.4-14.9-33.3-33.3-33.3h-219.3Z"/>
      <path class="cls-3" d="M714.1,448.5h-219.3c-19.1,0-34.6-15.5-34.6-34.6v-141.3c0-19.1,15.5-34.6,34.6-34.6h219.3c19.1,0,34.6,15.5,34.6,34.6v141.3c0,19.1-15.5,34.6-34.6,34.6ZM494.8,240.6c-17.7,0-32,14.3-32,32v141.3c0,17.7,14.3,32,32,32h219.3c17.7,0,32-14.3,32-32v-141.3c0-17.7-14.3-32-32-32h-219.3Z"/>
      <path class="cls-5" d="M358.9,231c-6.8,1.2-11.5,7.6-10.5,14.4.1.7.3,1.3.5,2l-65.4,57.6,24.2,17,57.8-67.3c5.3-2.3,8.4-7.8,7.6-13.6-1-6.7-7.3-11.2-13.9-10.2h0c-.1,0-.2,0-.3,0Z"/>
      <path class="cls-3" d="M334.1,296.2s-14.7,17-32.7,36.2c-1.2,1.3-2.5,2.7-3.8,4-10.9,11.6-22.7,23.6-32.9,32.9-10.9,10-20,16.9-24.4,17.1-.4,0-.7,0-1.1-.1-13.2-4-2.3.8-8,8.8-5.7,8.1-5-2.5-17.7-8.8-12.7-6.3-5.9,0-11,9.9-1.6,3.1-15.4,2.5-33.6.1-2.1-17.3-5-32.3-5-32.3,0-10.4,1-20.8,3.2-31,31.7-.6,57.9-.9,59.2-.5,3.5,1.1,10.9-1.6,19.1-6.3,1.2-.7,3.4-2.2,6.3-4.4,2.6-1.9,5.7-4.3,9.2-6.9,3.9-3,10.5-4.7,12.7-9.9,6.3-15.2,4.1-3.8,5.8-4.5,1.9-.8,5.3-1.1,7.3-2.3,1.1-.5,1.7-1.7,1.5-2.9,0-.5-.3-1-.5-1.4-1.8-3.6.9-4,3.5-4.3,1.1,0,2.1-.4,3-.9,10.3-8.2,18.2-14.6,18.2-14.6l2.8,2.9h0s16.6,16.8,16.6,16.8l2.3,2.3Z"/>
      <path class="cls-4" d="M319.9,780.9h-164.2c-7,0-12.7-7.2-12.7-16.1v-174.5c0-8.9,5.7-16.1,12.7-16.1h164.2c7,0,12.7,7.2,12.7,16.1v174.5c0,8.9-5.7,16.1-12.7,16.1Z"/>
      <polygon class="cls-5" points="433.9 756.7 450.5 756.7 458.4 692.8 433.9 692.8 433.9 756.7"/>
      <path class="cls-1" d="M433.4,773.9h50.9v-.6c0-10.9-8.9-19.8-19.8-19.8h0l-9.3-7.1-17.4,7.1h-4.4s0,20.5,0,20.5Z"/>
      <polygon class="cls-5" points="331.1 749.1 347 753.5 371.9 694.2 348.4 687.6 331.1 749.1"/>
      <path class="cls-1" d="M325.9,765.5l49,13.8.2-.6c3-10.5-3.2-21.5-13.7-24.4h0s-7-9.3-7-9.3l-18.6,2.1-4.3-1.2-5.5,19.7Z"/>
      <path class="cls-1" d="M288.7,477.1s-5.3-.5,8.3,4.2c14.7,5.1,37,4.4,58.4,12.1,6.6,2.4,13.3,4.8,19.9,7.2,1.3.5,2.7,1,4,1.5,8.6,3.2,17.1,6.3,25.2,9.3,1.1.4,2.2.9,3.4,1.3,0,0,0,0,0,0,26.2,10,46.8,18.5,50.2,21.9,3.6,3.6,5.1,28.2,5.6,58.6.8,56.3-2.2,132.5-2.2,132.5h-30.6c0-.1-.2-.8-.6-2.1-.7-2.3-1.9-6.7-3.6-12.3-7-23.6-21-70.4-28.7-91.8-2.2-6.1-3.9-10.1-4.8-11-5.2-5.3,0-7.7,5.2-11.1s0-4.4-3.8-8.8c-3.8-4.4,1.4-14.4,1.4-14.4,0,0-3.5,0-9-.2-8.1-.2-20.8-.5-33.5-.8t0,0c-4.8-.1-9.5-.2-14.1-.3-3.5,0-6.9-.2-10-.2-9.3-.2-16.4-.4-18.2-.4-5.8,0-1.3,0-4.8-4.6-.5-.7-1.1-1.3-1.7-1.9-.9-1-1.8-1.9-2.9-2.7-.7-.3.3,1.8-.3,4.5-.3,1.5-1,2.8-2,3.9-5.2,5.7-21-.5-21-.5-26,13-47.4,12.1-63.9,6-11.8-4.6-22.4-11.8-31-21.1-3.4-3.6-6.4-7.4-9.1-11.6l-2.1-.4s-2.9-96.7.4-103.2c5.2-10.2,81.9-2.6,81.9-2.6l33.8,39Z"/>
      <path class="cls-3" d="M431.5,85.9h105.8c.7,0,1.3-.6,1.3-1.3s-.6-1.3-1.3-1.3h-105.8c-.7,0-1.3.6-1.3,1.3s.6,1.3,1.3,1.3Z"/>
      <path class="cls-8" d="M574.8,189.3c-21.5-28.5-33.9-60.5-34.3-96.8-1.4-4.1.7-8.6,4.8-10l73.1-25.9c4.1-1.4,8.6.7,10,4.8l34.3,96.8c1.4,4.1-.7,8.6-4.8,10l-73.1,25.9c-4.1,1.4-8.6-.7-10-4.8Z"/>
      <path class="cls-2" d="M570,158.1c-12.9-13-18.4-36.3-22-62.3-1.3-3.8.7-8,4.5-9.4l62.9-22.2c3.8-1.3,8,.7,9.4,4.5l30.5,86.2c1.3,3.8-.7,8-4.5,9.4l-38.9,13.8c-17,6-35.7-2.9-41.8-19.9Z"/>
      <path class="cls-6" d="M625.5,115.1l-49,17.5c-1.6.6-3.4-.3-4-1.9s.3-3.4,1.9-4h0s49-17.5,49-17.5c1.6-.6,3.4.3,4,1.9.6,1.6-.3,3.4-1.9,4h0Z"/>
      <path class="cls-6" d="M581.6,112.6l-10.8,3.8c-1.6.6-3.4-.3-4-1.9-.6-1.6.3-3.4,1.9-4l10.8-3.8c1.6-.6,3.4.3,4,1.9.6,1.6-.3,3.4-1.9,4h0Z"/>
      <path class="cls-6" d="M634.8,140.9l-49,17.5c-1.6.6-3.4-.3-4-1.9-.6-1.6.3-3.4,1.9-4l49-17.5c1.6-.6,3.4.3,4,1.9s-.3,3.4-1.9,4h0s0,0,0,0Z"/>
      <path class="cls-6" d="M630.2,128l-49,17.5c-1.6.6-3.4-.3-4-1.9-.6-1.6.3-3.4,1.9-4l49-17.5c1.6-.6,3.4.3,4,1.9.6,1.6-.3,3.4-1.9,4Z"/>
      <circle class="cls-6" cx="544.7" cy="89.8" r="13"/>
      <path class="cls-3" d="M309.6,61.3h-105.8c-.7,0-1.3-.6-1.3-1.3s.6-1.3,1.3-1.3h105.8c.7,0,1.3.6,1.3,1.3s-.6,1.3-1.3,1.3Z"/>
      <path class="cls-8" d="M66.9,107.3c9.2-34.5,26.6-64,55-86.8,2.3-3.7,7.2-4.7,10.8-2.4l65.5,41.5c3.7,2.3,4.7,7.2,2.4,10.8l-55,86.8c-2.3,3.7-7.2,4.7-10.8,2.4l-65.5-41.5c-3.7-2.3-4.7-7.2-2.4-10.8Z"/>
      <path class="cls-2" d="M88.5,84.3c2.3-18.2,17.2-36.9,35.4-55.8,2.2-3.4,6.7-4.4,10.1-2.3l56.3,35.7c3.4,2.2,4.4,6.7,2.3,10.1l-48.9,77.2c-2.2,3.4-6.7,4.4-10.1,2.3l-34.9-22.1c-15.2-9.7-19.8-29.9-10.1-45.1Z"/>
      <path class="cls-6" d="M156.6,101.4l-44-27.7c-1.5-.9-1.9-2.8-1-4.3.9-1.5,2.8-1.9,4.3-1l44,27.7c1.5.9,1.9,2.8,1,4.3-.9,1.5-2.8,1.9-4.3,1h0Z"/>
      <path class="cls-6" d="M131.4,65.4l-9.7-6.1c-1.5-.9-1.9-2.8-1-4.3.9-1.5,2.8-1.9,4.3-1l9.7,6.1c1.5.9,1.9,2.8,1,4.3-.9,1.5-2.8,1.9-4.3,1Z"/>
      <path class="cls-6" d="M142,124.6l-44-27.7c-1.5-.9-1.9-2.8-1-4.3.9-1.5,2.8-1.9,4.3-1l44,27.7c1.5.9,1.9,2.8,1,4.3-.9,1.5-2.8,1.9-4.3,1Z"/>
      <path class="cls-6" d="M149.3,113l-44-27.7c-1.5-.9-1.9-2.8-1-4.3.9-1.5,2.8-1.9,4.3-1h0l44,27.7c1.5.9,1.9,2.8,1,4.3-.9,1.5-2.8,1.9-4.3,1h0Z"/>
      <circle class="cls-6" cx="196.4" cy="65.2" r="13"/>
      <circle class="cls-6" cx="475.8" cy="247.1" r="13"/>
      <path class="cls-1" d="M415,571.8c-5.4,29.5-28.4,98.7-42.3,139.2-6.3,18.5-6.8,11.5-6.8,11.5l-7.2-2.3-12.2-3.8-4.4-1.4-5.4-1.7s-2.6-47.1-3.5-82.4c-.3-11.4-.8-19.5-1.6-21.1-3.4-6.6,2.3-7.3,8.2-9,6-1.7,1.3-4.2-1-9.6-1.6-3.6,1.5-8.4,3.7-11.1.6-.8,1.3-1.5,1.9-2.2,0,0-15.2-5.2-32.4-11,0,0,0,0,0,0-1.7-.6-3.5-1.2-5.2-1.8,6.1-2.2,10.1-3.9,11-4.8,5.3-5.2,7.7,0,11.1,5.2s4.4,0,8.8-3.8c4.4-3.8,14.4,1.4,14.4,1.4,0,0,0-3.5.2-9,.2-8.1.5-20.8.8-33.5t0,0c.1-4.8.2-9.5.3-14.1,9.2,7,18,13.9,26.1,20.3,0,0,0,0,0,0,19.4,15.3,33.9,27.6,36,31.5.9,1.8.6,6.5-.6,13.2Z"/>
      <path class="cls-3" d="M290,461.5l-4.8,3.1-12.2,8-16.6,10.8-88.5,57.4s-10.9-22.3-.9-41.7c1.3-2.5,2.3-5,3.1-7.7,4.1-13.9-3.7-19.9-3.7-19.9,0,0-13-12.6-.5-24.3,2.6-2.4,4-7.3,4.6-13.6,1.1-10.3,0-24.4-1.4-37.2-2.1-17.3-5-32.3-5-32.3,0-10.4,1-20.8,3.2-31,2.4-11,6.2-21.4,11.9-30,2.1-3.2,4.5-6.2,7.1-8.9,3.7-3.8,8.1-7,12.9-9.3,7.2-3.5,19.6-1.4,30.5.1,2.2.3,4.3.6,6.3.8,2,.2,4,.4,6,.4l4.5,16.5,1.7,6.3.9,3.1,1.9,7.1.8,2.9,13,47.4,10.6,38.6,5.8,21.3,8.7,31.9v.3Z"/>
      <circle class="cls-5" cx="217.5" cy="235.3" r="39.4"/>
      <path class="cls-1" d="M210.1,267.9l-3.2,10.3c-7.1-3.5-14.3-7.1-20.3-12.4s-10.5-12.6-10.8-20.5c-.1-4.1.8-8.2.2-12.3-.8-4.6-3.6-8.5-4.9-13-2.5-9.6,2.2-19.7,11.2-23.9,6.5-2.9,14-2.1,21.1-2.8s15-3.9,17-10.8c.7-2.6.7-5.6,3-7.3,2.4-1.6,5.6-1.1,7.4,1.1,3.3,3.8,2.5,8.8,1.6,13.4,9.3-1.2,17.7-6.3,23.1-14,5.2,4.9,5.5,13.1.6,18.3,0,0,0,0,0,0,4.6,0,8.6-3.2,9.7-7.7,2.7,3.8,5.5,7.7,6.4,12.2s-.7,10-4.9,12c-2.1.8-4.4,1.2-6.7,1.1l-17.5.3c-10.8.2-19.6,9-19.7,19.8h0c-5.1-.5-10.4-1-15.2,1.2-2.2.9-4.1,2.6-5.4,4.7-3.2,5.5,0,11.2,2.8,16.1,2.4,4.3,4.7,9.4,2.7,13.8"/>
      <path class="cls-8" d="M390.2,668.4l-73.1-25.9c-4.1-1.4-6.2-5.9-4.8-10l34.3-96.8c1.4-4.1,5.9-6.2,10-4.8l73.1,25.9c4.1,1.4,6.2,5.9,4.8,10-.4,36.4-12.8,68.3-34.3,96.8-1.4,4.1-5.9,6.2-10,4.8Z"/>
      <path class="cls-2" d="M363.2,652.3l-38.9-13.8c-3.8-1.4-5.8-5.5-4.5-9.4l30.5-86.2c1.4-3.8,5.5-5.8,9.4-4.5l62.9,22.2c3.8,1.4,5.8,5.5,4.5,9.4-3.6,25.9-9.1,49.2-22,62.3-6,17-24.7,25.9-41.8,19.9Z"/>
      <path class="cls-6" d="M347.5,585.4c.6-1.6,2.4-2.5,4-1.9l49,17.5c1.6.6,2.5,2.4,1.9,4-.6,1.6-2.4,2.5-4,1.9,0,0,0,0,0,0l-49-17.5c-1.6-.6-2.5-2.4-1.9-4Z"/>
      <path class="cls-6" d="M391.5,582.9c.6-1.6,2.4-2.5,4-1.9l10.8,3.8c1.6.6,2.5,2.4,1.9,4-.6,1.6-2.4,2.5-4,1.9,0,0,0,0,0,0l-10.8-3.8c-1.6-.6-2.5-2.4-1.9-4Z"/>
      <path class="cls-6" d="M338.3,611.2c.6-1.6,2.4-2.5,4-1.9l49,17.5c1.6.6,2.5,2.4,1.9,4-.6,1.6-2.4,2.5-4,1.9,0,0,0,0,0,0l-49-17.5c-1.6-.6-2.5-2.4-1.9-4Z"/>
      <path class="cls-6" d="M342.9,598.3c.6-1.6,2.4-2.5,4-1.9l49,17.5c1.6.6,2.5,2.4,1.9,4-.6,1.6-2.4,2.5-4,1.9,0,0,0,0,0,0l-49-17.5c-1.6-.6-2.5-2.4-1.9-4Z"/>
      <path class="cls-5" d="M368,532.3c-1.9-6.6-8.8-10.5-15.5-8.8-.7.2-1.3.4-1.9.7l-64.6-58.4-14.1,26,73.4,49.8c2.9,5,8.7,7.5,14.3,6,6.5-1.8,10.3-8.5,8.5-15,0-.1,0-.2,0-.3Z"/>
      <path class="cls-3" d="M319.8,491l-2.5,3.1-14.8,18.4-2,2.5s-21.2-14.6-44.1-31.7c-27.5-20.6-57.5-44.9-56.1-52.4,2.5-13.6-1-2.2-9.7-6.9-8.7-4.7,1.9-5.2,6.8-18.6,4.8-13.3-.6-5.9-11.1-9.8-7-2.6-3.3-62.2-.1-101.6,3.7-3.8,8.1-7,12.9-9.3,8.7-4.2,24.8-.3,36.9.9,6.8,50.4,16.7,124.1,16.3,126.4-.7,3.5,2.8,10.6,8.4,18.3,2.6,3.6,16,17.3,29.4,30.8,14.9,15,29.9,29.8,29.9,29.8Z"/>
      <path class="cls-6" d="M638.4,305.5h-137.6c-1.6,0-3-1.3-3-3,0-1.6,1.3-3,3-3h137.6c1.6,0,3,1.3,3,3,0,1.6-1.3,3-3,3Z"/>
      <path class="cls-4" d="M708.1,332.6h-207.2c-1.6,0-3-1.3-3-3,0-1.6,1.3-3,3-3h207.2c1.6,0,3,1.3,3,3,0,1.6-1.3,3-3,3Z"/>
      <path class="cls-4" d="M708.1,353.8h-207.2c-1.6,0-3,1.3-3,3s1.3,3,3,3h207.2c1.6,0,3-1.3,3-3s-1.3-3-3-3h0Z"/>
      <path class="cls-4" d="M708.1,386.9h-207.2c-1.6,0-3-1.3-3-3,0-1.6,1.3-3,3-3h207.2c1.6,0,3,1.3,3,3,0,1.6-1.3,3-3,3Z"/>
    </g>
  </g>
</svg>