<?xml version="1.0" encoding="UTF-8"?>
<svg xmlns="http://www.w3.org/2000/svg" version="1.1" viewBox="0 0 800 800">
  <defs>
    <style>
      .cls-1 {
        fill: #2f2e41;
      }

      .cls-2 {
        fill: #fff;
      }

      .cls-3 {
        fill: #3f3d56;
      }

      .cls-4 {
        fill: #ffb9b9;
      }

      .cls-5 {
        fill: #f1f1f1;
      }

      .cls-6 {
        fill: #6c63ff;
      }

      .cls-7 {
        fill: #b7b7b7;
      }

      .cls-8 {
        fill: #ffb7b7;
      }
    </style>
  </defs>
  <!-- Generator: Adobe Illustrator 28.7.1, SVG Export Plug-In . SVG Version: 1.2.0 Build 142)  -->
  <g>
    <g id="Capa_1">
      <rect class="cls-7" x="1.1" y="1.5" width="798.3" height="798.3"/>
      <path class="cls-5" d="M696.7,708c8.6,16.6,27.3,24.1,27.3,24.1,0,0,4.8-19.5-3.7-36.2s-27.3-24.1-27.3-24.1c0,0-4.8,19.5,3.7,36.2Z"/>
      <path class="cls-5" d="M702.9,702.7c15.8,9.9,21.6,29.2,21.6,29.2,0,0-19.9,3.1-35.7-6.8s-21.6-29.2-21.6-29.2c0,0,19.9-3.1,35.7,6.8Z"/>
      <polygon class="cls-8" points="480.4 720.6 469.3 720.6 464 677.8 480.4 677.8 480.4 720.6"/>
      <path class="cls-1" d="M483.2,731.4h-35.8v-.5c0-7.7,6.2-13.9,13.9-13.9h21.9s0,14.4,0,14.4Z"/>
      <polygon class="cls-8" points="549.2 720.6 538.1 720.6 532.8 677.8 549.2 677.8 549.2 720.6"/>
      <path class="cls-1" d="M552,731.4h-35.8v-.5c0-7.7,6.2-13.9,13.9-13.9h21.9s0,14.4,0,14.4Z"/>
      <path class="cls-8" d="M517,479.3l-21.8-44,5.6-36.5-26.3-7.2-2.7,48.9,34.1,46.3c-.7,5,2.7,9.5,7.7,10.2,5,.7,9.5-2.7,10.2-7.7.6-4.6-2.3-8.9-6.8-10.1h0Z"/>
      <path class="cls-8" d="M564.2,479.3l21.8-44-5.6-36.5,26.3-7.2,2.7,48.9-34.1,46.3c.7,5-2.7,9.5-7.7,10.2-5,.7-9.5-2.7-10.2-7.7-.6-4.6,2.3-8.9,6.8-10.1h0Z"/>
      <circle class="cls-4" cx="549.6" cy="305.2" r="23.9"/>
      <path class="cls-1" d="M525.9,305.1s-2.6-3.9-1.6-8.1c.6-2.4.8-4.8.7-7.3,1.1-3.6,2.5-7.2,4.2-10.6,2.1-3.8,1.1-5.4,7.7-6.6s3.9-9.8,21.2-.5c1.2,1.7,3.3,2.5,5.3,2,3.6-.7,4.9,4.3,4.9,4.3,0,0,2.4-1.4,3.3.6s7.3-1.2,7.3,12.3-7.3,25.5-7.3,25.5c0,0-5.1,16.1-17,13.8s-13.6-.9-21.7-16.3c-1.7,4.8-4.2-13.5-7-9.2Z"/>
      <path class="cls-1" d="M497.1,459.6l-2.8,10.9s-13,6.3-18.3,62.9l-7,84.9-10.7,89,22.3,1.7,15.5-56.4,33.4-118.5,6.3,89.7-7.1,81.3,23.5.9,16.3-90.6s25-132.7,8.9-136.5l-1.6-13.8-78.8-5.4Z"/>
      <path class="cls-3" d="M492,357.5l38.4-21.2,32.6,1.7,39,23.1-16.2,101.4s9.3,10.4-18.8,7.4-73.6-5.5-73.6-5.5c0,0-3.7-7.3,4.2-8.3s1.3-.8,1.3-.8c0,0-4.7-15.2,0-18.1l2.3-31.1-9.1-48.6Z"/>
      <polygon class="cls-3" points="502.6 359.1 492 357.5 469.5 397.6 506 413.6 502.6 359.1"/>
      <polygon class="cls-3" points="589.5 366.3 602 361.1 614.4 417.5 580.7 423.9 589.5 366.3"/>
      <rect class="cls-2" x="121.8" y="464.8" width="127" height="64"/>
      <rect class="cls-6" x="136.8" y="481.2" width="97" height="3.3"/>
      <rect class="cls-6" x="136.8" y="495.2" width="97" height="3.3"/>
      <rect class="cls-6" x="136.8" y="509.1" width="97" height="3.3"/>
      <path class="cls-3" d="M249.8,529.8H120.8v-66h129v66ZM122.8,527.8h125v-62h-125v62Z"/>
      <path class="cls-6" d="M157.5,385.3c-26.9,0-53.2-7.5-76.1-21.6l-.6-.4.4-.6,76-122.9h145.2v.7c0,79.8-65,144.8-144.8,144.8Z"/>
      <path class="cls-5" d="M64.4,333.1l-.5-.3C10.7,299.9-6.9,230.7,24.1,176.3l.3-.5,101.4,57.9-61.4,99.3Z"/>
      <path class="cls-6" d="M302.3,220.4h-145.6l31.4-142.2h.7c66.3,14.8,113.6,73.6,113.6,141.5v.7Z"/>
      <path class="cls-5" d="M133.5,198l-98.7-56.4.3-.5c24.6-42.9,74.1-64.9,122.4-54.2h.5c0,.1-24.5,111.1-24.5,111.1Z"/>
      <rect class="cls-2" x="375.8" y="68.2" width="127" height="64"/>
      <rect class="cls-6" x="390.8" y="84.6" width="97" height="3.3"/>
      <rect class="cls-6" x="390.8" y="98.6" width="97" height="3.3"/>
      <rect class="cls-6" x="390.8" y="112.5" width="97" height="3.3"/>
      <path class="cls-3" d="M503.8,133.2h-129v-66h129v66ZM376.8,131.2h125v-62h-125v62Z"/>
      <rect class="cls-3" x="184.6" y="299.2" width="2" height="164.6"/>
      <rect class="cls-3" x="218.3" y="134.1" width="164.8" height="2" transform="translate(-29 135.9) rotate(-24.3)"/>
    </g>
  </g>
</svg>