<svg xmlns="http://www.w3.org/2000/svg"  viewBox="0 0 64 64" width="128px" height="128px" baseProfile="basic"><linearGradient id="0WxJE0f-IjhnDScHEWXEsa" x1="32" x2="32" y1="9.869" y2="49.5" gradientUnits="userSpaceOnUse"><stop offset="0" stop-color="#6dc7ff"/><stop offset="1" stop-color="#e6abff"/></linearGradient><path fill="url(#0WxJE0f-IjhnDScHEWXEsa)" d="M11,49.5C18,47,35,41,35,36s-10-5.5-10-8c0-2.344,8.139-2.373,10.045-2.5	c1.221-0.081,2.077-0.148,2.521-0.332C38.527,24.77,38.668,23.885,36.5,23c2.811,0.613,3.004,1.878,2.045,2.597	c-0.644,0.483-1.851,0.714-3.204,0.826c-2.2,0.181-6.448,0.305-6.242,1.29C29.607,30.14,50.598,29.425,53,41.5h1V14.869	c0-2.761-2.239-5-5-5H15c-2.761,0-5,2.239-5,5v34c0,0.216,0.037,0.422,0.064,0.631H11z"/><linearGradient id="0WxJE0f-IjhnDScHEWXEsb" x1="32" x2="32" y1="9" y2="55" gradientUnits="userSpaceOnUse"><stop offset="0" stop-color="#1a6dff"/><stop offset="1" stop-color="#c822ff"/></linearGradient><path fill="url(#0WxJE0f-IjhnDScHEWXEsb)" d="M49,55H15c-3.309,0-6-2.691-6-6V15c0-3.309,2.691-6,6-6h34c3.309,0,6,2.691,6,6v34	C55,52.309,52.309,55,49,55z M15,11c-2.206,0-4,1.794-4,4v34c0,2.206,1.794,4,4,4h34c2.206,0,4-1.794,4-4V15c0-2.206-1.794-4-4-4H15	z"/></svg>