<svg xmlns="http://www.w3.org/2000/svg"  viewBox="0 0 64 64" width="128px" height="128px"><linearGradient id="~pyDpAQiVZnn_fgs3AZa0a" x1="14.347" x2="14.347" y1="7.25" y2="56.75" gradientUnits="userSpaceOnUse"><stop offset="0" stop-color="#1a6dff"/><stop offset="1" stop-color="#c822ff"/></linearGradient><path fill="url(#~pyDpAQiVZnn_fgs3AZa0a)" d="M10.978,37.416V16.427c0-3.005,2.445-5.45,5.45-5.45h1.288l-0.289,1.248L10.978,37.416z M15.101,13.249c-1.252,0.524-2.123,1.751-2.123,3.179v5.113L15.101,13.249z"/><linearGradient id="~pyDpAQiVZnn_fgs3AZa0b" x1="24.195" x2="24.195" y1="7.25" y2="56.75" gradientUnits="userSpaceOnUse"><stop offset="0" stop-color="#1a6dff"/><stop offset="1" stop-color="#c822ff"/></linearGradient><path fill="url(#~pyDpAQiVZnn_fgs3AZa0b)" d="M37.413,53.024H16.428c-3.005,0-5.45-2.445-5.45-5.45v-1.289l1.248,0.289L37.413,53.024z M13.248,48.901c0.524,1.252,1.752,2.124,3.18,2.124h5.114L13.248,48.901z"/><linearGradient id="~pyDpAQiVZnn_fgs3AZa0c" x1="49.639" x2="49.639" y1="7.25" y2="56.75" gradientUnits="userSpaceOnUse"><stop offset="0" stop-color="#1a6dff"/><stop offset="1" stop-color="#c822ff"/></linearGradient><path fill="url(#~pyDpAQiVZnn_fgs3AZa0c)" d="M47.573,53.023h-1.318l6.769-26.438v20.988C53.023,50.578,50.578,53.023,47.573,53.023z M51.023,42.46l-2.124,8.298c1.246-0.521,2.124-1.752,2.124-3.186V42.46z"/><linearGradient id="~pyDpAQiVZnn_fgs3AZa0d" x1="39.804" x2="39.804" y1="7.25" y2="56.75" gradientUnits="userSpaceOnUse"><stop offset="0" stop-color="#1a6dff"/><stop offset="1" stop-color="#c822ff"/></linearGradient><path fill="url(#~pyDpAQiVZnn_fgs3AZa0d)" d="M53.023,17.715l-1.248-0.289l-25.191-6.449h20.989c3.005,0,5.45,2.445,5.45,5.45V17.715z M42.461,12.978l8.298,2.124c-0.521-1.246-1.753-2.124-3.186-2.124H42.461z"/><linearGradient id="~pyDpAQiVZnn_fgs3AZa0e" x1="28.834" x2="28.834" y1="7.25" y2="56.75" gradientUnits="userSpaceOnUse"><stop offset="0" stop-color="#1a6dff"/><stop offset="1" stop-color="#c822ff"/></linearGradient><path fill="url(#~pyDpAQiVZnn_fgs3AZa0e)" d="M42.461,12.978H15.208l0.275-1.22C16.115,9.286,18.285,7.6,20.772,7.6 c0.455,0,0.911,0.058,1.355,0.171L42.461,12.978z M18.019,10.978h8.567l-4.954-1.269C20.262,9.356,18.819,9.909,18.019,10.978z"/><g><linearGradient id="~pyDpAQiVZnn_fgs3AZa0f" x1="35.187" x2="35.187" y1="7.25" y2="56.75" gradientUnits="userSpaceOnUse"><stop offset="0" stop-color="#1a6dff"/><stop offset="1" stop-color="#c822ff"/></linearGradient><path fill="url(#~pyDpAQiVZnn_fgs3AZa0f)" d="M43.228,56.4L43.228,56.4c-0.455,0-0.911-0.058-1.355-0.171l-20.331-5.206h27.292 l-0.323,1.25C47.886,54.715,45.716,56.4,43.228,56.4z M37.414,53.023l4.954,1.269c1.369,0.35,2.812-0.201,3.614-1.269H37.414z"/></g><g><linearGradient id="~pyDpAQiVZnn_fgs3AZa0g" x1="53.712" x2="53.712" y1="7.25" y2="56.75" gradientUnits="userSpaceOnUse"><stop offset="0" stop-color="#1a6dff"/><stop offset="1" stop-color="#c822ff"/></linearGradient><path fill="url(#~pyDpAQiVZnn_fgs3AZa0g)" d="M51.023,42.462V15.178l1.242,0.311c1.445,0.369,2.631,1.258,3.373,2.511 c0.741,1.252,0.951,2.719,0.59,4.13L51.023,42.462z M53.023,18.017v8.568l1.268-4.952c0.229-0.894,0.096-1.823-0.374-2.615 C53.684,18.623,53.38,18.285,53.023,18.017z"/></g><g><linearGradient id="~pyDpAQiVZnn_fgs3AZa0h" x1="10.288" x2="10.288" y1="7.25" y2="56.75" gradientUnits="userSpaceOnUse"><stop offset="0" stop-color="#1a6dff"/><stop offset="1" stop-color="#c822ff"/></linearGradient><path fill="url(#~pyDpAQiVZnn_fgs3AZa0h)" d="M12.978,48.814l-1.266-0.306c-1.424-0.365-2.608-1.253-3.351-2.505 c-0.742-1.252-0.951-2.719-0.59-4.129l5.206-20.333V48.814z M10.978,37.415L9.709,42.37c-0.229,0.893-0.097,1.821,0.373,2.614 c0.234,0.396,0.538,0.733,0.896,1.001V37.415z"/></g><g><linearGradient id="~pyDpAQiVZnn_fgs3AZa0i" x1="38.678" x2="38.678" y1="20" y2="43.75" gradientUnits="userSpaceOnUse"><stop offset="0" stop-color="#6dc7ff"/><stop offset="1" stop-color="#e6abff"/></linearGradient><circle cx="38.677" cy="25.323" r="5.323" fill="url(#~pyDpAQiVZnn_fgs3AZa0i)"/><linearGradient id="~pyDpAQiVZnn_fgs3AZa0j" x1="38.678" x2="38.678" y1="20" y2="43.75" gradientUnits="userSpaceOnUse"><stop offset="0" stop-color="#6dc7ff"/><stop offset="1" stop-color="#e6abff"/></linearGradient><circle cx="38.677" cy="37.66" r="5.323" fill="url(#~pyDpAQiVZnn_fgs3AZa0j)"/><linearGradient id="~pyDpAQiVZnn_fgs3AZa0k" x1="26" x2="26" y1="20" y2="43.75" gradientUnits="userSpaceOnUse"><stop offset="0" stop-color="#6dc7ff"/><stop offset="1" stop-color="#e6abff"/></linearGradient><path fill="url(#~pyDpAQiVZnn_fgs3AZa0k)" d="M22,43h8c0.552,0,1-0.448,1-1V21c0-0.552-0.448-1-1-1h-8c-0.552,0-1,0.448-1,1v21 C21,42.552,21.448,43,22,43z"/></g></svg>