<?xml version="1.0" encoding="UTF-8"?>
<svg xmlns="http://www.w3.org/2000/svg" version="1.1" viewBox="0 0 800 800">
  <defs>
    <style>
      .cls-1 {
        fill: #cacaca;
      }

      .cls-2 {
        fill: #2f2e41;
      }

      .cls-3 {
        fill: #fff;
      }

      .cls-4 {
        fill: #ffb6b6;
      }

      .cls-5 {
        fill: #e5e5e5;
      }

      .cls-6 {
        fill: #3f3d56;
      }

      .cls-7 {
        fill: #f1f1f1;
      }

      .cls-8 {
        fill: #ff6582;
      }

      .cls-9 {
        fill: #e4e4e4;
      }

      .cls-10 {
        fill: #6c63ff;
      }
    </style>
  </defs>
  <!-- Generator: Adobe Illustrator 28.7.1, SVG Export Plug-In . SVG Version: 1.2.0 Build 142)  -->
  <g>
    <g id="Capa_1">
      <rect class="cls-1" x="1.7" width="798.3" height="798.3"/>
      <g id="Capa_1-2" data-name="Capa_1">
        <polygon class="cls-4" points="772.3 682.1 764.1 684.7 750.2 654.5 762.2 650.7 772.3 682.1"/>
        <path class="cls-2" d="M776.9,689.3l-26.3,8.4v-.3c-1.9-5.6,1.2-11.7,6.8-13.5h0l3.6-5.2,10.1.8,2.3-.7,3.4,10.6h.1Z"/>
        <polygon class="cls-4" points="695 690.2 686.5 690.2 682.4 657.2 695 657.2 695 690.2"/>
        <path class="cls-2" d="M697.2,698.5h-27.6v-.3c0-5.9,4.8-10.7,10.7-10.7h0l5-3.8,9.4,3.8h2.4v11.1h0Z"/>
        <path class="cls-4" d="M654.2,349.4c-2.4,3-1.9,7.4,1.1,9.9.3.3.7.5,1,.7l-4.1,24.6,11.8-5.3,2.1-22.5c1.6-3.5,0-7.7-3.4-9.4-3-1.4-6.5-.5-8.5,2h0Z"/>
        <path class="cls-2" d="M762.1,553.3s2-26-5.1-30.8-65.3-7.3-65.3-7.3l-3.6,4.8s-.3,2.2-5.8,20.3l-2.2,101.1c-.2,9.9-1.9,22.2,2.2,24.8l2,10h11l6.1-16.8c2.6-4.2,3.7-9.2,3.2-14.2l3.3-14.8c-.2-.2-.4-.5-.5-.8-.4-2.2,0-4.5,1.4-6.3.3-.4.6-.8,1-1.2l12.2-54.4,16.4,63.6,10.1,22.6c-1,2.4-.3,4.5,1.5,6.5-.7,1.9,2.2,3.2,3.5,5.5l3.9,7.4,11-6,1-6c.7-1.8-1.1-3-2.4-6.7,2.5-2.6,2.3-5.2,0-7.7l-4.2-17.9v-17l-.3-58.6h-.4Z"/>
        <circle class="cls-4" cx="716.1" cy="379.8" r="19.1"/>
        <path class="cls-2" d="M735.4,382.8l-.3-.6c-.5-1-4.5-9.1-5-11.2l-5.1.6h-13.2l1.8-2.8-4.9.6c-1.8.2-3.5.9-5,1.9-.9.6-1.7,1.4-2.2,2.3-1.7,3-4.4,7.8-4.4,7.9l-.3.5-2.2-3.7c0-.1-2.8-14.4,6.4-19.2,2.7-5.2,8.2-8.3,14-8,1-1.2,2.5-1.9,4.1-2,2.2-.1,4.4,1,6.7,3.4,3,3.2,7.1,7.5,9.6,12.3l.7,1c1,1.4,1.5,3.1,1.4,4.8.5,2.7.3,5.5-.5,8.2l-1.5,4.1h0Z"/>
        <path class="cls-6" d="M762,416.2l-20.8-5.8-10.6-7.8-20.8,3.3h0c-3.6,4.8-9.2,9.5-15.2,9.7-1.5,0-3.1.3-4.5.7l-2,36.5v32.6c.6.2,1.1.7,1.3,1.4.6,3.3.5,6.7-.2,10-.2,1.2-.6,2.3-1.1,3.3,1.2,2.4,1.2,5.3,0,7.7-1.8,1.7-1.5,3.5,0,5.5v6.8c33.7,28.1,68.9,4,68.9,4l-1.1-53.5,6.2-54.4h-.1Z"/>
        <path class="cls-6" d="M694.8,421.2l-4.7-5-25.7-2.9,2.4-39.4-14-10-6.3,34.2c-2.2,1.9-2.6,3.7-1,5.6-1.7,3.5-2.2,6.3-1.6,8.6l-1.3,7.1,47.5,33.3,4.7-31.5h0Z"/>
        <path class="cls-4" d="M758.3,550.1c-2.1-3.3-1.1-7.6,2.1-9.7.3-.2.7-.4,1.1-.6l-1.5-24.9,11.2,6.5-.3,22.6c1.2,3.7-.7,7.7-4.4,8.9-3.1,1-6.5-.2-8.2-2.9h0Z"/>
        <path class="cls-6" d="M754.2,422.4l7.8-6.2s8,4.4,10.4,12.3,6.7,52.8,6.7,52.8l.7,16.7c.8,2.7.6,5-1.4,6.9,3,3.1,2.6,5.7-1.5,7.7l-4.3,26.3-13.4-2.8,1.7-51.9-10.9-33.4,4.2-28.5h0Z"/>
        <path class="cls-6" d="M268,195.9h-2.7v-75c0-24-19.4-43.4-43.4-43.4H63c-24,0-43.4,19.4-43.4,43.4v411.2c0,24,19.4,43.4,43.4,43.4h158.8c24,0,43.4-19.4,43.4-43.4V249.3h2.7v-53.4h0Z"/>
        <path class="cls-3" d="M223.6,88.9h-20.7c3.2,7.9-.6,16.9-8.4,20.1-1.8.8-3.8,1.1-5.8,1.1h-91c-8.5,0-15.4-6.9-15.4-15.4s.4-4,1.1-5.8h-19.4c-17.9,0-32.4,14.5-32.4,32.4v410.6c0,17.9,14.5,32.4,32.4,32.4h159.6c17.9,0,32.4-14.5,32.4-32.4h0V121.3c0-17.9-14.5-32.4-32.4-32.4h0Z"/>
        <path class="cls-7" d="M222.1,242.7c0,9.3-1.7,18.6-4.9,27.3-1.5,4-3.3,7.9-5.4,11.6-21.5,37.5-69.3,50.5-106.8,29-12.1-6.9-22.1-16.9-29-29-.7-1.2-1.4-2.4-2-3.7-19.5-38.6-3.9-85.7,34.7-105.1,38.6-19.5,85.7-3.9,105.1,34.7,5.5,10.9,8.4,23,8.4,35.2h-.1Z"/>
        <circle class="cls-8" cx="147.9" cy="240.9" r="15"/>
        <path class="cls-10" d="M73.9,277.9c6.6-7.1,15.4-18.4,23.7-10.3,4.1,3.9,10.6,13.4,16.9,7.2l48.5-48.5c3.8-3.7,9.9-3.7,13.6,0l.2.2,40.4,43.5c-1.5,4-3.3,7.9-5.4,11.6H75.9l-2-3.7h0Z"/>
        <path id="a69ed34c-3aa3-4521-988a-f33ab8935c86-352" class="cls-10" d="M180.5,401.6c-1.1,0-2,.9-2,2s.9,2,2,2h21.2c1.1,0,2-.9,2-2s-.9-2-2-2h-21.2Z"/>
        <path id="a82b6965-e745-4a79-ac21-2b08adebfabf-353" class="cls-5" d="M84.9,371.9c-1.1,0-2,.9-2,2s.9,2,2,2h117.7c1.1,0,2-.9,2-2s-.9-2-2-2h-117.7Z"/>
        <path id="a01cc774-2c01-4baa-ba73-f6c316fae153-354" class="cls-5" d="M84.9,386.7c-1.1,0-2,.9-2,2s.9,2,2,2h117.7c1.1,0,2-.9,2-2s-.9-2-2-2h-117.7Z"/>
        <path id="f6ecfbd0-b722-47f2-8687-80b685eaa1e2-355" class="cls-10" d="M161.5,532.8c-1.1,0-2,.9-2,2s.9,2,2,2h21.2c1.1,0,2-.9,2-2s-.9-2-2-2h-21.2Z"/>
        <path id="beaff243-1f9b-420c-bc28-f0641d12fad8-356" class="cls-5" d="M65.9,503.1c-1.1,0-2,.9-2,2s.9,2,2,2h117.7c1.1,0,2-.9,2-2s-.9-2-2-2h-117.7Z"/>
        <path id="a8605179-8b03-4e4a-93a2-1a820418a8d0-357" class="cls-5" d="M65.9,517.9c-1.1,0-2,.9-2,2s.9,2,2,2h117.7c1.1,0,2-.9,2-2s-.9-2-2-2h-117.7Z"/>
        <path class="cls-9" d="M643,326l-16.2-7.3c-.3,7.3-6.4,12.9-13.6,12.7-1.7,0-3.4-.5-4.9-1.2l-70.9-32.1c-6.6-3-9.6-10.8-6.6-17.4.7-1.6,1.7-3,2.9-4.1l-15.1-6.8c-13.9-6.3-30.4-.1-36.7,13.8l-144.7,320c-6.3,13.9-.1,30.4,13.8,36.7h0l124.3,56.2c13.9,6.3,30.4,0,36.7-13.8h0l144.7-320c6.3-13.9,0-30.4-13.8-36.7h0Z"/>
        <path class="cls-3" d="M499.1,478.3c-22.2-10.1-37.3-31.2-39.6-55.4-.1-1.2-.2-2.4-.3-3.6-.5-10.6,1.6-21.2,6-30.9,15.5-34.2,55.7-49.3,89.9-33.9,34.2,15.5,49.3,55.7,33.9,89.9-3.3,7.4-7.9,14.1-13.6,19.8-2.6,2.6-5.4,5-8.4,7.2-19.8,14.2-45.6,16.8-67.8,6.8h-.1ZM554.2,356.4c-33.2-15-72.2-.2-87.2,32.9-4.3,9.4-6.3,19.6-5.8,29.9,0,1.2.1,2.3.2,3.5,3.5,36.3,35.7,62.8,71.9,59.3,11.7-1.1,22.8-5.3,32.3-12.2,2.9-2.1,5.7-4.4,8.2-7,25.6-25.9,25.4-67.6-.4-93.3-5.6-5.5-12.1-10-19.2-13.2h0Z"/>
        <rect class="cls-3" x="527.7" y="348.4" width="2" height="132.8" transform="translate(-113.5 217) rotate(-21)"/>
        <rect class="cls-3" x="459.7" y="414.9" width="132.8" height="2" transform="translate(-114.1 216.2) rotate(-21)"/>
        <path class="cls-3" d="M526.1,575.3l-117.4-53.1c-1.8-.8-2.6-3-1.8-4.8l11-24.4c.8-1.8,3-2.6,4.8-1.8l117.4,53.1c1.8.8,2.6,3,1.8,4.8l-11,24.4c-.8,1.8-3,2.6-4.8,1.8ZM421.9,493c-.8-.4-1.8,0-2.1.8l-11,24.4c-.4.8,0,1.8.8,2.1l117.4,53.1c.8.4,1.8,0,2.1-.8l11-24.4c.4-.8,0-1.8-.8-2.1l-117.4-53.1Z"/>
        <path class="cls-3" d="M497.7,638.1l-117.4-53.1c-1.8-.8-2.6-3-1.8-4.8l11-24.4c.8-1.8,3-2.6,4.8-1.8l117.4,53.1c1.8.8,2.6,3,1.8,4.8l-11,24.4c-.8,1.8-3,2.6-4.8,1.8ZM393.5,555.9c-.8-.4-1.8,0-2.1.8l-11,24.4c-.4.8,0,1.8.8,2.1l117.4,53.1c.8.4,1.8,0,2.1-.8l11-24.4c.4-.8,0-1.8-.8-2.1l-117.4-53.1Z"/>
        <path class="cls-2" d="M465.8,487.5c-2.4-12-7.6-23.3-15.2-32.9-7.7-9.8-17.1-18.1-27.8-24.5-11-6.7-23-11.6-35.6-14.6-15.6-3.8-31.7-5-47.8-4.8-16.1.2-32.2,1.7-48.3,3.4-2,.2-4.1.4-6.1.6-1.9.2-1.9,3.2,0,3,15.8-1.7,31.6-3.3,47.5-3.9,15.8-.5,31.6.1,47.2,3.1,12.9,2.4,25.4,6.8,36.9,13.1,10.8,5.8,20.4,13.5,28.5,22.7,7.9,9,13.7,19.7,16.8,31.2.4,1.5.7,2.9,1,4.4.4,1.9,3.3,1.1,2.9-.8h0Z"/>
        <path class="cls-2" d="M295.7,393.2l-24,25.5c-.6.6-.6,1.6,0,2.1,0,0,.2.2.3.2l21.6,10.3c1.7.8,3.3-1.8,1.5-2.6l-21.6-10.3.3,2.4,24-25.5c1.3-1.4-.8-3.5-2.1-2.1h0Z"/>
      </g>
    </g>
  </g>
</svg>