<?xml version="1.0" encoding="UTF-8"?>
<svg xmlns="http://www.w3.org/2000/svg" version="1.1" viewBox="0 0 800 800">
  <defs>
    <style>
      .cls-1 {
        fill: #2f2e41;
      }

      .cls-2 {
        fill: #fff;
      }

      .cls-3 {
        fill: #ffb6b6;
      }

      .cls-4 {
        fill: #3f3d56;
      }

      .cls-5 {
        fill: #6c63ff;
      }

      .cls-6 {
        fill: #b7b7b7;
      }

      .cls-7 {
        fill: #e6e6e6;
      }
    </style>
  </defs>
  <!-- Generator: Adobe Illustrator 28.7.1, SVG Export Plug-In . SVG Version: 1.2.0 Build 142)  -->
  <g>
    <g id="Capa_1">
      <rect class="cls-6" x=".8" y="1" width="798.3" height="798.3"/>
      <g>
        <polygon class="cls-3" points="625 746.5 615 746.5 610.2 707.8 625 707.8 625 746.5"/>
        <path class="cls-1" d="M590.6,746.2h0c-.3.5-.5,2.2-.5,2.8h0c0,1.9,1.5,3.4,3.4,3.4h31.1c1.3,0,2.3-1,2.3-2.3v-1.3s1.5-3.9-1.6-8.7c0,0-3.9,3.8-9.8-2.1l-1.7-3.1-12.5,9.2-7,.9c-1.5.2-2.9,0-3.7,1.3h0Z"/>
      </g>
      <g>
        <polygon class="cls-3" points="663 746.5 653 746.5 648.2 707.8 663 707.8 663 746.5"/>
        <path class="cls-1" d="M628.6,746.2h0c-.3.5-.5,2.2-.5,2.8h0c0,1.9,1.5,3.4,3.4,3.4h31.1c1.3,0,2.3-1,2.3-2.3v-1.3s1.5-3.9-1.6-8.7c0,0-3.9,3.8-9.8-2.1l-1.7-3.1-12.5,9.2-7,.9c-1.5.2-2.9,0-3.7,1.3h0Z"/>
      </g>
      <path class="cls-1" d="M605.7,514.3l-.2,214.9h26.3l12.4-158.9.4,158.9,24.3-.3,18.8-182.8s2.5-19.1-5.4-28.8c-8-9.8-76.5-3-76.5-3h0Z"/>
      <path class="cls-3" d="M605.1,538.7c.5,6.6-2.5,12.3-6.7,12.7-4.2.3-8.1-4.8-8.6-11.4-.2-2.9.2-5.6,1.1-7.8l-1.9-28.2,13.2-.6.5,27.9c1.3,2,2.1,4.6,2.4,7.5Z"/>
      <path id="b-641" class="cls-4" d="M458.7,212.6h0v-107c0-34.2-27.7-61.9-61.9-61.9h-226.6c-34.2,0-61.9,27.7-61.9,61.9v586.9c0,34.2,27.7,61.9,61.9,61.9h226.6c34.2,0,61.9-27.7,61.9-61.9v-403.8h0c2.2,0,3.9-1.7,3.9-3.9v-68.3c0-2.2-1.7-3.9-3.9-3.9Z"/>
      <path id="c-642" class="cls-2" d="M447.1,100.5v595.2c-36.2-2.2-72,39.3-46.9,47h-231.3c-25.9,0-47-21-47-47V100.5c0-25.9,21-47,47-47h17.1c-4.6,11.4,32.8,15.1,35.7,15.1h118.5c12.3,0,42.1-12.5,41-15.1h19.1c25.9,0,46.9,21,47,46.9h0s0,0,0,0h0Z"/>
      <path id="d-643" class="cls-7" d="M388.7,516.3h-205.5c-2.1,0-3.8-1.7-3.8-3.8v-51c0-2.1,1.7-3.8,3.8-3.8h205.5c2.1,0,3.8,1.7,3.8,3.8v51c0,2.1-1.7,3.8-3.8,3.8ZM183.1,459.2c-1.3,0-2.3,1-2.3,2.3v51c0,1.3,1,2.3,2.3,2.3h205.5c1.3,0,2.3-1,2.3-2.3v-51c0-1.3-1-2.3-2.3-2.3h-205.5Z"/>
      <path id="e-644" class="cls-7" d="M388.7,614.5h-205.5c-2.1,0-3.8-1.7-3.8-3.8v-51c0-2.1,1.7-3.8,3.8-3.8h205.5c2.1,0,3.8,1.7,3.8,3.8v51c0,2.1-1.7,3.8-3.8,3.8h0ZM183.1,557.5c-1.3,0-2.3,1-2.3,2.3v51c0,1.3,1,2.3,2.3,2.3h205.5c1.3,0,2.3-1,2.3-2.3v-51c0-1.3-1-2.3-2.3-2.3h-205.5Z"/>
      <path id="g-646" class="cls-1" d="M194,306.1c.2-.3.5-.5.7-.7,5.8-6.1,8.8-9.7,15.9-9.7s7.1,0,8.3.2c5,.5,8.9,2,11.9,4.5,4.4,3.7,6.6,9.6,6.6,17.6,0,.4,0,1.3,0,2.4.3,6.4,4.7,13.3,5.5,15.6,1.4,3.8-.9,15.9-2.7,18.3-1,1.4-1.3-2.2-4.5-1.5-.6.1-3.1,4.9-3.7,5-3.4.5-6.9.7-10.4.6-.5,0-.9,0-1.4,0h0c-1.6,0-3.4,0-5.3-.1-5-.1-9.9-.7-14.8-1.6h0c-.6-.1-1.3-.3-1.9-.5h-.1s0-.1,0-.1c-.9-1.8-1.4-3.7-1.5-5.7-.9,1.3-1.6,2.7-2,4.2v.3c0,0-1.6-5-1.6-5-2.2-.9-2.8,2.5-4.2.6-1.3-2-2.1-4.3-2.3-6.7-.7-6.5,2-31.6,7.3-37.5Z"/>
      <path id="h-647" class="cls-1" d="M192.3,514.4h30.7l5.2-25.5,1.7,25.5h30.6c0-18.9-7.8-65.4-6.8-65.8s-.5-1.6-.5-1.6l-5-17.1-.5-1.6h-35.6c-2,1.9-3.9,4-5.6,6.2-.6.7-1.2,1.5-1.8,2.4-.4.6-.9,1.3-1.3,1.9-4,5.9-6.9,12.4-8.8,19.3h0c-.3,1.2-.6,2.4-.8,3.6h0c-.2,1.1-.4,2.2-.6,3.3-.1.8-.2,1.7-.3,2.5-.4,4.7-.3,9.4.4,14.1l-1,32.8Z"/>
      <circle id="i" class="cls-3" cx="218.6" cy="323.1" r="17.9"/>
      <path id="j-648" class="cls-1" d="M206.8,300.8h17.6c2.1-.5,4.3-.6,6.5-.5,2.7.2,5.2,1.2,7.3,2.8,3.1,2.5,4.9,6.5,4.9,11.3,0,1.5.3,3.5,0,5l-2.1-3.5-.6,3.5c-1.6.4-1.2.5-2.8.8-.4,0-.8.2-1.2.2-2.1.4-4.2,1.2-4.2,1.2l-2.4-.3c-1.5-1.4-1.8-4.8-2.6-6.7-.2.6-.4,1.5-.5,2.6-.5,2.7-2.9,4.7-5.6,4.7h0c-6.7,0-6.7-5.2-13.3-6.8-.4-.1,4,30.4,3.5,30.3l-13.5-8.7,1.7-28.7c0-4,3.3-7.3,7.3-7.3h0s0,0,0,0Z"/>
      <path id="k-649" class="cls-1" d="M188.4,299.2c-3.2,6.6-.9,8.1,5.7,11.3,6.6,3.2,15,7,18.2.4,3.2-6.6-2.4-12-9-15.3,1.4-5.5-8-8-12.6.3,1.6,1.3-2.1,4.9-1.3,6.8-1.6-1.3,1.2-3.8-.9-3.5,0,0,0,0-.1,0h0Z"/>
      <path id="l-650" class="cls-7" d="M388.7,614.5h-205.5c-2.1,0-3.8-1.7-3.8-3.8v-51c0-2.1,1.7-3.8,3.8-3.8h205.5c2.1,0,3.8,1.7,3.8,3.8v51c0,2.1-1.7,3.8-3.8,3.8h0ZM183.1,557.5c-1.3,0-2.3,1-2.3,2.3v51c0,1.3,1,2.3,2.3,2.3h205.5c1.3,0,2.3-1,2.3-2.3v-51c0-1.3-1-2.3-2.3-2.3h-205.5Z"/>
      <path id="m-651" class="cls-7" d="M223.1,574.6c-1.5,0-2.7,1.2-2.7,2.7s1.2,2.7,2.7,2.7h125.6c1.5,0,2.7-1.1,2.8-2.6,0-1.5-1.1-2.7-2.6-2.8,0,0,0,0-.1,0h-125.7Z"/>
      <path id="n-652" class="cls-7" d="M223.1,590.6c-1.5,0-2.7,1.2-2.7,2.7s1.2,2.7,2.7,2.7h125.6c1.5,0,2.7-1.1,2.8-2.6,0-1.5-1.1-2.7-2.6-2.8,0,0,0,0-.1,0h-125.7Z"/>
      <path id="o-653" class="cls-7" d="M388.7,216.7h-205.5c-2.1,0-3.8-1.7-3.8-3.8v-51c0-2.1,1.7-3.8,3.8-3.8h205.5c2.1,0,3.8,1.7,3.8,3.8v51c0,2.1-1.7,3.8-3.8,3.8h0ZM183.1,159.7c-1.3,0-2.3,1-2.3,2.3v51c0,1.3,1,2.3,2.3,2.3h205.5c1.3,0,2.3-1,2.3-2.3v-51c0-1.3-1-2.3-2.3-2.3h-205.5Z"/>
      <path id="p-654" class="cls-7" d="M246.7,176.8c-1.5,0-2.7,1.2-2.7,2.7s1.2,2.7,2.7,2.7h125.6c1.5,0,2.7-1.1,2.8-2.6,0-1.5-1.1-2.7-2.6-2.8,0,0,0,0-.1,0h-125.7s0,0,0,0Z"/>
      <path id="q-655" class="cls-7" d="M246.7,192.8c-1.5,0-2.7,1.2-2.7,2.7s1.2,2.7,2.7,2.7h125.6c1.5,0,2.7-1.1,2.8-2.6,0-1.5-1.1-2.7-2.6-2.8,0,0,0,0-.1,0h-125.7s0,0,0,0Z"/>
      <circle id="r" class="cls-7" cx="209.8" cy="187.4" r="16"/>
      <path id="s-656" class="cls-7" d="M663.2,377.7l-28.2-1.9-8.4,13.3-20.3,8.3v65.5c2.1,6.3,3.2,13,3.2,19.7,0,13.1-3.4,28.4-2.3,31.8,11.4,32.9,73.8,0,73.8,0l-1.1-35.2,1.5-79.6-12.8-10.2-5.5-11.7Z"/>
      <path id="t-657" class="cls-7" d="M610.9,395.5h-.3c-6.3,1.1-11.6,5.2-14.3,11-3.4,7.4-8.2,115.1-8.2,115.1,0,0,12.8-1,19.2,2.1,0,0,2.9-15.9,1.2-18.6s1.5-30.3,1.5-30.3c7-18.3,4.2-48.5,1-79.2Z"/>
      <path class="cls-3" d="M700.8,537.4c0,6.7-3.5,12.1-7.7,12s-7.7-5.4-7.6-12.1c0-2.9.7-5.6,1.8-7.7l.5-28.3,13.3.5-1.9,27.8c1.1,2.1,1.7,4.8,1.7,7.7h0Z"/>
      <path id="u-658" class="cls-7" d="M675.6,397.5h.3c6.3.8,11.9,4.6,14.8,10.2,3.8,7.2,13.7,99.5,13.4,101.1s.6,13.4.6,13.4c0,0-12.8-.3-19.1,3l-5.1-48.7-5-79.1Z"/>
      <g>
        <path class="cls-4" d="M106.4,225.7c-1.6,0-3,1.3-3,3v23.9c0,1.6,1.3,3,3,3s3-1.3,3-3v-23.9c0-1.6-1.3-3-3-3Z"/>
        <path class="cls-4" d="M106.4,297.5c-1.6,0-3,1.3-3,3v46.4c0,1.6,1.3,3,3,3s3-1.3,3-3v-46.4c0-1.6-1.3-3-3-3Z"/>
        <path class="cls-4" d="M106.4,363.3c-1.6,0-3,1.3-3,3v46.4c0,1.6,1.3,3,3,3s3-1.3,3-3v-46.4c0-1.6-1.3-3-3-3Z"/>
      </g>
      <circle class="cls-7" cx="310.9" cy="310.5" r="10"/>
      <path class="cls-5" d="M355,308.9c-.4-.7-1.1-1.1-1.9-1.1s-1.5.4-1.9,1.1l-4.3,9.6c-1.7-11.2-8-20.9-16-30.1-.6-1-1.6-1.6-2.8-1.6s-2.2.6-2.8,1.6c-3.8,16.8-14,33-27.6,49-1.2,3,1,6.2,4.2,6.2h64.2c4.1,0,6.9-4,5.7-7.8-2.4-10.9-7.3-20.2-16.7-26.8Z"/>
      <path class="cls-7" d="M335.5,262.5c-31.4,0-57,25.6-57,57s4.2,24.5,11.3,34c10.4,13.9,27,23,45.7,23s36.2-9.5,46.6-24.2c6.6-9.3,10.4-20.6,10.4-32.8,0-31.4-25.6-57-57-57h0ZM380.9,350.4c-9.9,14.5-26.6,24.1-45.5,24.1s-34.6-9-44.6-22.9c-6.5-9-10.4-20.2-10.4-32.1,0-30.3,24.7-55,55-55s55,24.7,55,55-3.5,22.1-9.5,30.9Z"/>
      <g>
        <path class="cls-3" d="M278.3,338.6h0c2.6-3.9,6.7-5.7,9.2-4s2.4,6.2-.3,10c-1.1,1.7-2.6,3-4,3.8l-11.3,16.3-7.5-5.5,11.9-15.5c.2-1.6.8-3.5,2-5.2h0Z"/>
        <path class="cls-5" d="M276,360.4l-30.8,35.4-2.8,3.3-13.2-4.8-20.4-7.4h0l-15.2-5.5c.2-1.3.4-2.7.7-4,.3-1.5.7-2.9,1.2-4.3,1.4-4.3,3.4-8.4,6-12.2,1,.4,2,.9,2.9,1.4l22.7,9.8,12.6,5.5,5.2-5,22.3-21.7,2.1,2.2h0s6.2,6.7,6.2,6.7h0s.6.7.6.7Z"/>
      </g>
      <path class="cls-5" d="M252.8,436.1l-51.6-2.2c.8-1.6-.4-3.2,0-4.6.3-1.2,2.3-2.2,2.4-3.3.4-6.1-.6-16.1-7.6-26.8-1.4-2.2-2.2-5.1-2.5-8.3-.3-3.2-.3-6.3,0-9.5.2-1.3.4-2.7.7-4,.3-1.5.7-2.9,1.2-4.3,1.4-4.3,3.4-8.4,6-12.2.2-.3.3-.5.5-.8,1-1.3,2-2.6,3.1-3.9,1.3-1.4,2.7-2.8,4.2-4.1l2.2-1.9,20.7-2.8,10.8,21.5,1.9,3.7,2,4c-1.2,5.4-1.7,10.2-1.7,14.5,0,1.6,0,3.2,0,4.8.1,2.4.4,4.7.7,6.8.8,5.3,2.1,10.2,3.4,15.1.7,2.6,1.3,5.1,1.8,7.8.2,1.3,2.8,3.7,3.1,4.9.5,1.5-2.1,4.3-1.4,5.6Z"/>
      <g>
        <path class="cls-3" d="M291.8,393h0c4.3-1.8,8.7-1,9.9,1.7s-1.4,6.4-5.8,8.2c-1.9.8-3.8,1.1-5.5.9l-18.4,7.4-3.3-8.7,18.5-6.3c1.1-1.3,2.6-2.4,4.5-3.2h0Z"/>
        <path class="cls-5" d="M195.3,373c-.5,1.4-.8,2.9-1.1,4.3l34.2,46.2,20.9-5.8,28.6-7.9v-.9c-.1,0-1.6-9-1.6-9l-.5-3-29.8,5.6-7.9,1.5-13.3-20.5h0l-7.7-11.8c-3.6-7-9.2-11.1-15.1-11.8l-6.6,12.9h0Z"/>
      </g>
      <circle class="cls-7" cx="388.7" cy="514.8" r="6"/>
      <circle id="v" class="cls-3" cx="650.1" cy="349.7" r="22"/>
      <path id="w-659" class="cls-1" d="M665.4,368.5c3.1-2.4,3.4-7,6-9.8,4.4-4.8,6.4-10,4.1-15.7-2-5-1.6-11.2-5.9-14.5,2.1-.8-5.3,0-3-3s-2-1.8-1.8-3.1-3.6-3.5-6.1-1c-.4.4-.7.8-1,1.2-2.6-3.9-9.6-5.4-13.5-2.9-3.9,2.4-1.4,5.8-5.6,5.1-2-.3-6.2-.6-7.5.9-1.3,1.6,2.7,4.8.7,4.6-1.9-.4-6.9,6-6.9,6l-1.9-2.3c-2.9,1.9-2,6.9,1,8.8,1.1.7,3.7,2.5,5,2.6,1,.1,1.9-4.9,3-5,1.1-.1,1.1,3.3,2.2,3,4.1-1,8.3-1.4,12.6-1,6.4.9,10.9,8.6,8.5,14.7,2.5-2.4,7-.4,8.3,2.8s-2.2,4.5-3.2,7.8"/>
    </g>
  </g>
</svg>