<?xml version="1.0" encoding="UTF-8"?>
<svg xmlns="http://www.w3.org/2000/svg" version="1.1" viewBox="0 0 800 800">
  <defs>
    <style>
      .cls-1 {
        fill: #cacaca;
      }

      .cls-2 {
        fill: #2f2e41;
      }

      .cls-3 {
        fill: #fff;
      }

      .cls-4 {
        fill: #ffb6b6;
      }

      .cls-5 {
        fill: #f0f0f0;
      }

      .cls-6 {
        fill: #3f3d56;
      }

      .cls-7 {
        fill: #f2f2f2;
      }

      .cls-8 {
        fill: #ffb8b8;
      }

      .cls-9 {
        fill: #e4e4e4;
      }

      .cls-10 {
        fill: #6c63ff;
      }

      .cls-11 {
        fill: #b7b7b7;
      }
    </style>
  </defs>
  <!-- Generator: Adobe Illustrator 28.7.1, SVG Export Plug-In . SVG Version: 1.2.0 Build 142)  -->
  <g>
    <g id="Capa_1">
      <rect class="cls-11" x=".9" y="1.4" width="798.3" height="798.3"/>
      <path class="cls-7" d="M652,591.2l-255.8-116.8,131.7-288.5,255.8,116.8-131.7,288.5Z"/>
      <path class="cls-3" d="M691,423.6l-193.6-88.4c-.8-.3-1.1-1.2-.7-2,.3-.8,1.2-1.1,2-.7h0l193.6,88.4c.8.3,1.1,1.2.7,2-.3.8-1.2,1.1-2,.7h0Z"/>
      <path class="cls-3" d="M701.7,400l-193.6-88.4c-.8-.3-1.1-1.2-.7-2,.3-.8,1.2-1.1,2-.7h0l193.6,88.4c.8.3,1.1,1.2.7,2-.3.8-1.2,1.1-2,.7h0Z"/>
      <path class="cls-3" d="M712.5,376.4l-193.6-88.4c-.8-.3-1.1-1.2-.7-2,.3-.8,1.2-1.1,2-.7l193.6,88.4c.8.3,1.1,1.2.7,2-.3.8-1.2,1.1-2,.7Z"/>
      <path class="cls-3" d="M723.3,352.9l-193.6-88.4c-.8-.3-1.1-1.2-.7-2,.3-.8,1.2-1.1,2-.7l193.6,88.4c.8.3,1.1,1.2.7,2-.3.8-1.2,1.1-2,.7h0Z"/>
      <path class="cls-3" d="M681.2,444.9l-193.6-88.4c-.8-.3-1.1-1.2-.7-2,.3-.8,1.2-1.1,2-.7l193.6,88.4c.8.3,1.1,1.2.7,2-.3.8-1.2,1.1-2,.7h0Z"/>
      <path class="cls-3" d="M713.6,318.3l-151.3-69.1c-1.8-.8-2.7-2.7-2.1-4.6.6-1.9,2.7-2.9,4.6-2.3.1,0,.2,0,.3.1l151.2,69c1.8.8,2.7,2.8,2.2,4.6-.7,1.9-2.7,2.9-4.6,2.2-.1,0-.2,0-.3-.1Z"/>
      <path class="cls-7" d="M131.6,302.7l255.8-116.8,131.7,288.5-255.8,116.8-131.7-288.5Z"/>
      <path class="cls-3" d="M224.3,423.6l193.6-88.4c.8-.3,1.1-1.2.7-2-.3-.8-1.2-1.1-2-.7l-193.6,88.4c-.8.3-1.1,1.2-.7,2s1.2,1.1,2,.7h0Z"/>
      <path class="cls-3" d="M213.5,400l193.6-88.4c.8-.3,1.1-1.2.7-2-.3-.8-1.2-1.1-2-.7h0l-193.6,88.4c-.8.3-1.1,1.2-.7,2s1.2,1.1,2,.7h0Z"/>
      <path class="cls-3" d="M202.8,376.4l193.6-88.4c.8-.3,1.1-1.2.7-2-.3-.8-1.2-1.1-2-.7l-193.6,88.4c-.8.3-1.1,1.2-.7,2,.3.8,1.2,1.1,2,.7Z"/>
      <path class="cls-3" d="M192,352.9l193.6-88.4c.8-.3,1.1-1.2.7-2-.3-.8-1.2-1.1-2-.7l-193.6,88.4c-.8.3-1.1,1.2-.7,2s1.2,1.1,2,.7h0Z"/>
      <path class="cls-3" d="M234,444.9l193.6-88.4c.8-.3,1.1-1.2.7-2-.3-.8-1.2-1.1-2-.7l-193.6,88.4c-.8.3-1.1,1.2-.7,2s1.2,1.1,2,.7h0Z"/>
      <path class="cls-3" d="M201.7,318.3l151.3-69.1c1.8-.8,2.7-2.7,2.1-4.6-.6-1.9-2.7-2.9-4.6-2.3-.1,0-.2,0-.3.1l-151.2,69c-1.8.8-2.7,2.8-2.2,4.6.7,1.9,2.7,2.9,4.6,2.2.1,0,.2,0,.3-.1Z"/>
      <path class="cls-5" d="M38.3,643.4c1.6-25,15.6-50.4,38.8-59.9-7.8,26.1-6.2,54.2,4.7,79.2,4.2,9.6,9.9,19.9,7.1,30-1.8,6.3-6.7,11.3-12.3,14.6-5.6,3.3-12,5.1-18.3,6.8l-1.2,1.1c-11.5-22.3-20.3-46.9-18.7-71.9Z"/>
      <path class="cls-3" d="M77.3,584c-12.9,16.3-20.3,36.2-21.2,56.9-.3,4.5.2,8.9,1.3,13.3,1.2,4.2,3.5,8,6.7,10.9,2.9,2.8,6.2,5.4,8.4,8.9,2.2,3.6,2.7,8.1,1.4,12.1-1.4,5-4.6,9.3-7.8,13.3-3.6,4.5-7.4,9.1-8.7,14.8-.2.7-1.2.4-1.1-.3,2.3-10,11.4-16.1,15.5-25.2,1.9-4.2,2.5-9.1.2-13.3-2-3.7-5.4-6.3-8.3-9.2-3.1-2.9-5.5-6.4-7-10.4-1.3-4.3-1.9-8.7-1.8-13.2.2-10,2-20,5.3-29.5,3.7-10.8,9.2-21,16.3-30,.4-.6,1.2.2.8.8h0Z"/>
      <path class="cls-3" d="M56,634.2c-7.1-1.3-12.3-7.6-12.2-14.8,0-.3.3-.5.6-.5.3,0,.5.2.5.5-.1,6.8,4.7,12.6,11.4,13.8.7.1.4,1.2-.3,1.1h0Z"/>
      <path class="cls-3" d="M62.4,663.8c5.9-4,10.1-10.2,11.8-17.2.2-.7,1.2-.4,1.1.3-1.7,7.3-6.1,13.6-12.3,17.8-.6.4-1.1-.6-.6-1Z"/>
      <path class="cls-3" d="M65,603.3c2.6,1.1,5.6.7,7.9-.9.6-.4,1.1.6.6,1-2.6,1.8-5.8,2.1-8.7,1-.3,0-.5-.4-.4-.7,0-.3.4-.5.7-.4h0Z"/>
      <path class="cls-5" d="M151.8,623.6c-.4.3-.7.5-1.1.8-4.8,3.6-9.3,7.5-13.4,11.8-.3.3-.7.7-1,1-9.9,10.5-17.8,22.7-23.2,36-2.2,5.3-3.9,10.8-5.2,16.4-1.8,7.7-3.2,16.2-7.4,22.7-.4.7-.9,1.3-1.4,2l-40.8,2.4c0,0-.2,0-.3-.1l-1.6.2c0-.3.1-.6.2-.9,0-.2,0-.3,0-.5,0-.1,0-.2,0-.3,0,0,0,0,0-.1,0-.1,0-.2,0-.3.3-1.7.6-3.4,1-5.1t0,0c2.6-12.9,6.3-25.7,11.8-37.5.2-.4.3-.7.5-1.1,2.5-5.3,5.5-10.4,8.8-15.2,1.8-2.6,3.8-5.2,5.9-7.6,5.4-6.3,11.8-11.7,18.9-16,14.2-8.6,30.9-12.6,46.9-8.8.4,0,.8.2,1.2.3Z"/>
      <path class="cls-3" d="M151.8,624.1c-20.1,5.2-38,16.7-51.2,32.7-2.9,3.4-5.3,7.2-7,11.4-1.5,4.1-2,8.5-1.2,12.8.6,4,1.7,8,1.3,12.1-.4,4.2-2.7,8.1-6.1,10.6-4.2,3.2-9.2,4.6-14.3,5.9-5.6,1.4-11.4,2.8-15.8,6.6-.5.5-1.2-.4-.7-.9,7.8-6.6,18.8-6,27.5-10.8,4-2.3,7.4-5.8,8.2-10.5.7-4.1-.5-8.3-1.1-12.4-.8-4.2-.5-8.5.7-12.5,1.5-4.2,3.7-8.1,6.5-11.6,6.2-7.9,13.6-14.8,21.9-20.4,9.5-6.4,20-11.2,31.1-14.1.7-.2.8.9.1,1.1h0Z"/>
      <path class="cls-3" d="M104.5,651.4c-4.9-5.3-5.3-13.4-.8-19.2.4-.6,1.3,0,.9.7-4.2,5.3-3.8,12.9.8,17.8.5.5-.4,1.2-.9.7h0Z"/>
      <path class="cls-3" d="M91.8,678.9c7.2.3,14.2-2,19.7-6.6.5-.5,1.2.4.7.9-5.7,4.8-13.1,7.2-20.5,6.9-.7,0-.6-1.1.1-1.1Z"/>
      <path class="cls-3" d="M130.3,632.1c1.5,2.4,4,3.9,6.8,4.1.7,0,.6,1.1-.1,1.1-3.1-.1-5.9-1.8-7.6-4.5-.2-.2-.1-.6,0-.8.2-.2.6-.1.8,0h0Z"/>
      <path class="cls-3" d="M647.9,593.7h-382.5V162.2h382.5v431.4Z"/>
      <path class="cls-1" d="M647.9,593.7h-382.5V162.2h382.5v431.4ZM267.5,591.6h378.4V164.3h-378.4v427.3Z"/>
      <path class="cls-9" d="M601.5,364.2h-289.6c-1.1,0-2.1-.9-2.1-2.1,0-1.1.9-2.1,2.1-2.1h289.6c1.1,0,2.1.9,2.1,2.1,0,1.1-.9,2.1-2.1,2.1Z"/>
      <path class="cls-9" d="M601.5,329h-289.6c-1.1,0-2.1-.9-2.1-2.1,0-1.1.9-2.1,2.1-2.1h289.6c1.1,0,2.1.9,2.1,2.1,0,1.1-.9,2.1-2.1,2.1Z"/>
      <path class="cls-9" d="M601.5,293.7h-289.6c-1.1,0-2.1-.9-2.1-2.1,0-1.1.9-2.1,2.1-2.1h289.6c1.1,0,2.1.9,2.1,2.1,0,1.1-.9,2.1-2.1,2.1Z"/>
      <path class="cls-9" d="M601.5,258.4h-289.6c-1.1,0-2.1-.9-2.1-2.1,0-1.1.9-2.1,2.1-2.1h289.6c1.1,0,2.1.9,2.1,2.1,0,1.1-.9,2.1-2.1,2.1Z"/>
      <path class="cls-9" d="M601.5,396.1h-289.6c-1.1,0-2.1-.9-2.1-2.1,0-1.1.9-2.1,2.1-2.1h289.6c1.1,0,2.1.9,2.1,2.1,0,1.1-.9,2.1-2.1,2.1Z"/>
      <path class="cls-9" d="M601.5,554.3h-289.6c-1.1,0-2.1-.9-2.1-2.1,0-1.1.9-2.1,2.1-2.1h289.6c1.1,0,2.1.9,2.1,2.1,0,1.1-.9,2.1-2.1,2.1Z"/>
      <path class="cls-3" d="M532.1,521.3h-150.8c-2.1,0-3.8-1.7-3.8-3.8v-88.7c0-2.1,1.7-3.8,3.8-3.8h150.8c2.1,0,3.8,1.7,3.8,3.8v88.7c0,2.1-1.7,3.8-3.8,3.8Z"/>
      <path class="cls-10" d="M481.7,470.7c-3.2-3.4-8.5-3.6-11.9-.4,0,0-.1.1-.2.2l-42.4,42.4c-2.3,2.3-6.1,2.3-8.5,0l-6.3-6.3c-3.3-3.3-8.6-3.3-11.8,0h0s-12.2,12.2-12.2,12.2h136.4v-1.7l-43.2-46.4Z"/>
      <path class="cls-6" d="M532.1,521.3h-150.8c-2.1,0-3.8-1.7-3.8-3.8v-88.7c0-2.1,1.7-3.8,3.8-3.8h150.8c2.1,0,3.8,1.7,3.8,3.8v88.7c0,2.1-1.7,3.8-3.8,3.8ZM381.3,427.5c-.7,0-1.3.6-1.3,1.3v88.7c0,.7.6,1.3,1.3,1.3h150.8c.7,0,1.3-.6,1.3-1.3v-88.7c0-.7-.6-1.3-1.3-1.3h-150.8Z"/>
      <path class="cls-4" d="M168.5,506.5c1.4-5.1-1.5-10.4-6.6-11.8-.5-.2-1.1-.3-1.7-.3l-7.9-33.1-12.1,12.9,9.4,29.5c-.2,5.3,4,9.8,9.3,10,4.5.1,8.4-2.8,9.6-7.1Z"/>
      <path class="cls-9" d="M147.4,494.5c-1.2-.4-2.1-1.2-2.6-2.4l-16.8-41c-4.3-9.8-4.8-20.9-1.6-31.1l10.7-33.6c.7-7.6,7.4-13.2,15-12.5,7.6.7,13.2,7.4,12.5,15,0,0,0,0,0,0l-14.2,54.2,9.5,42.5c.3,1.8-.5,3.6-2.1,4.5l-7.1,4c-.8.4-1.6.6-2.5.5-.3,0-.7,0-1-.2Z"/>
      <polygon class="cls-4" points="207 704.5 218.6 704.5 224.2 659.4 207 659.4 207 704.5"/>
      <path class="cls-2" d="M204,700.7h23s0,0,0,0c8.1,0,14.7,6.6,14.7,14.7v.5h-37.7s0-15.1,0-15.1Z"/>
      <polygon class="cls-4" points="141.2 704.5 152.9 704.5 158.4 659.4 141.2 659.4 141.2 704.5"/>
      <path class="cls-2" d="M138.2,700.7h23s0,0,0,0c8.1,0,14.7,6.6,14.7,14.7v.5h-37.7s0-15.1,0-15.1Z"/>
      <path class="cls-2" d="M214,477.1l-68.5-6s-6.8,43.2-5.8,60.4c1,17.2,1.9,43.8,1.9,43.8l-7.6,116.3,29.6-3.8,3.8-96.3,12.4-52.4,14.3,66.7,9.5,85.8,25.7-2.9-8.6-103.9s7.6-93.4-6.7-107.7Z"/>
      <circle class="cls-8" cx="186.4" cy="331.3" r="19.1"/>
      <path class="cls-9" d="M207.2,373.9l-13.6-10.8s-14.7-11.4-23.4-3l-3.9,5.6s-22,8.3-22,18.7l1,57.5s-7.6,29.6,3.8,31.5l66.6,5.4-.9-55-7.7-49.9Z"/>
      <path class="cls-2" d="M171.6,348s-20-14.3-9.5-31.5c7.3-11.9,22.3-11,30.9-9.3,4.7.9,8.6,4,10.6,8.3,1.4,3.3,1.4,6.7-4.3,6.7-11.4,0-5.7,8.6-5.7,8.6,0,0-7.6,1.9-5.7,8.6s-16.2,8.6-16.2,8.6Z"/>
      <path class="cls-4" d="M276,474.3c-1.3-5.1-6.6-8.2-11.7-6.8-.5.1-1.1.3-1.6.6l-23.6-24.5-3.9,17.3,23,20.6c2.5,4.7,8.4,6.4,13.1,3.9,3.9-2.1,5.9-6.7,4.7-11h0Z"/>
      <path class="cls-9" d="M251.7,474.7c-1.2.3-2.4,0-3.4-.7l-35.2-26.8c-8.7-6.3-14.8-15.5-17.1-26l-7.8-34.4c-3.3-6.9-.3-15.1,6.6-18.4,6.9-3.3,15.1-.3,18.4,6.6,0,0,0,0,0,0l15.2,53.9,29.8,31.8c1.2,1.4,1.3,3.3.5,4.9l-4,7.1c-.4.8-1.1,1.4-1.9,1.7-.3.1-.6.3-.9.3Z"/>
      <path class="cls-1" d="M735.9,95.5H185.3c-.4,0-.8-.4-.8-.8,0-.4.4-.8.8-.8h550.5c.4,0,.8.4.8.8,0,.4-.4.8-.8.8Z"/>
      <circle class="cls-6" cx="203.3" cy="75.5" r="8.8"/>
      <circle class="cls-6" cx="233.7" cy="75.5" r="8.8"/>
      <circle class="cls-6" cx="264" cy="75.5" r="8.8"/>
      <path class="cls-6" d="M717.7,72.1h-21.6c-.9,0-1.6-.7-1.6-1.6,0-.9.7-1.6,1.6-1.6h21.6c.9,0,1.6.7,1.6,1.6,0,.9-.7,1.6-1.6,1.6h0Z"/>
      <path class="cls-6" d="M717.7,78.1h-21.6c-.9,0-1.6-.7-1.6-1.6,0-.9.7-1.6,1.6-1.6h21.6c.9,0,1.6.7,1.6,1.6,0,.9-.7,1.6-1.6,1.6h0Z"/>
      <path class="cls-6" d="M717.7,84.1h-21.6c-.9,0-1.6-.7-1.6-1.6,0-.9.7-1.6,1.6-1.6h21.6c.9,0,1.6.7,1.6,1.6,0,.9-.7,1.6-1.6,1.6h0Z"/>
      <path class="cls-10" d="M569.9,221.1h-226.2c-2.6,0-4.8-1.9-5.2-4.4-.3-2.7,1.7-5.1,4.4-5.4.2,0,.3,0,.5,0h226.1c2.7,0,4.9,1.9,5.3,4.5.2,2.7-1.8,5.1-4.5,5.4-.1,0-.3,0-.4,0Z"/>
    </g>
  </g>
</svg>