<?xml version="1.0" encoding="UTF-8"?>
<svg xmlns="http://www.w3.org/2000/svg" version="1.1" viewBox="0 0 800 800">
  <defs>
    <style>
      .cls-1 {
        fill: #2f2e41;
      }

      .cls-2 {
        fill: #ff6584;
      }

      .cls-3 {
        fill: #3f3d56;
      }

      .cls-4 {
        fill: #f2f2f2;
      }

      .cls-5 {
        isolation: isolate;
        opacity: .2;
      }

      .cls-6 {
        fill: #a0616a;
      }

      .cls-7 {
        fill: #ccc;
      }

      .cls-8 {
        fill: #6c63ff;
      }

      .cls-9 {
        fill: #b7b7b7;
      }

      .cls-10 {
        fill: #e6e6e6;
      }
    </style>
  </defs>
  <!-- Generator: Adobe Illustrator 28.7.1, SVG Export Plug-In . SVG Version: 1.2.0 Build 142)  -->
  <g>
    <g id="Capa_1">
      <rect class="cls-9" x="1.8" y="1.4" width="798.3" height="798.3"/>
      <path class="cls-10" d="M482.1,417.5c2.7,0,4.9,2.2,4.9,4.9v47.4h94c2.7,0,4.9,2.2,4.9,4.9s-2.2,4.9-4.9,4.9h-94v163.9h-9.8v-221.2c0-2.7,2.2-4.9,4.9-4.9Z"/>
      <path class="cls-3" d="M220.5,642.5l-17.7.5c-2.7.1-5.3-.6-7.6-2.1-1.9-1.4-2.8-3.4-2.4-5.3l3.5-17.5c.7-3.3,4.7-5.8,9.6-5.9l9.8-.3c4.9-.1,9.1,2.1,9.9,5.4l4.4,17.3c.5,1.9-.3,3.9-2.1,5.4-2.1,1.6-4.7,2.5-7.4,2.5Z"/>
      <path class="cls-3" d="M328,642l-17.7.5c-2.7.1-5.3-.6-7.6-2.1-1.9-1.4-2.8-3.4-2.4-5.3l3.5-17.5c.7-3.3,4.7-5.8,9.6-5.9l9.8-.3c4.9-.1,9.1,2.1,9.9,5.4l4.4,17.3c.5,1.9-.3,3.9-2.1,5.4-2.1,1.6-4.7,2.5-7.4,2.5Z"/>
      <path class="cls-3" d="M159.2,493.6c-2-.8-2.9-3.1-2-5.1.6-1.4,1.9-2.3,3.4-2.3l200.9-5.5c2.1,0,3.9,1.6,4,3.7h0c0,2.1-1.6,3.9-3.8,4h0s-200.9,5.5-200.9,5.5c-.6,0-1.1,0-1.6-.3Z"/>
      <rect class="cls-10" x="178.5" y="427.9" width="57.4" height="194" transform="translate(-14.4 5.9) rotate(-1.6)"/>
      <polygon class="cls-7" points="234.8 423.6 223.7 453.7 223.7 590.7 237.2 594.5 234.8 423.6"/>
      <path class="cls-3" d="M204.3,376.4c-10.7.3-18.9,18.9-18.7,26.2l.4,13.1,38.9-1.1-.4-13.1c-.2-7.3-9.4-25.4-20.2-25.1Z"/>
      <path class="cls-3" d="M176.6,509c-4.2.1-7.7-3.2-7.8-7.4l-.6-21.4c-.1-4.2,3.2-7.7,7.4-7.8s7.7,3.2,7.8,7.4l.6,21.4c.1,4.2-3.2,7.7-7.4,7.8Z"/>
      <polyline class="cls-3" points="191.2 429.1 190.9 415 194.6 414.9 194.9 429 198.3 634.2 194.6 634.4"/>
      <path class="cls-10" d="M239.9,462.2l-66.6,1.8c-6.4-7.8-6.9-40.8,6.3-47.1l5.2-8.8,40.1-2,4.7,9.3c6.6,5.6,10,38.5,10.2,46.7Z"/>
      <path class="cls-8" d="M214.8,446.3l-16.8.5c-3.2,0-6-4.1-6.2-9.4s2.4-9.6,5.6-9.7l16.8-.5c3.2,0,6,4.1,6.2,9.4s-2.4,9.6-5.6,9.7Z"/>
      <polygon class="cls-10" points="182.2 541.7 147.5 566.2 141.4 621.5 181.9 607.9 182.2 541.7"/>
      <rect class="cls-10" x="289.4" y="425.5" width="57.4" height="194" transform="translate(-14.3 9) rotate(-1.6)"/>
      <polygon class="cls-7" points="288.1 424.3 299.9 454 303.5 591 290.1 595.2 288.1 424.3"/>
      <ellipse class="cls-10" cx="372.9" cy="360.8" rx="7.5" ry="10.1"/>
      <path class="cls-3" d="M314,374.1c-10.7.3-18.9,18.9-18.7,26.2l.4,13.1,38.9-1.1-.4-13.1c-.2-7.3-9.4-25.4-20.2-25.1Z"/>
      <polyline class="cls-3" points="325.1 433.6 324.9 419.4 328.6 419.3 328.8 433.4 332.2 638.7 328.5 638.8"/>
      <path class="cls-10" d="M349.6,459.8l-66.6,1.8c-1.2-7,.3-39.8,6.3-47.1l5.2-8.8,40.1-2,4.7,9.3c11.8,1,16,33.1,10.2,46.7Z"/>
      <path class="cls-8" d="M324.6,446.9l-16.8.5c-3.2,0-6-4.8-6.2-10.9s2.3-11.1,5.6-11.2l16.8-.5c3.2,0,6,4.8,6.2,10.9s-2.3,11.1-5.6,11.2Z"/>
      <polygon class="cls-10" points="347 527.5 380.5 553.6 384.1 609.1 344.3 593.7 347 527.5"/>
      <path class="cls-4" d="M337.6,270.4c-36,0-77.4-40-114-21-110.9,57.5-95.6-38.7-127.4-74.5l1-2.1c24.1,92,45.9,238.5,126.9,74.1,20.3-41.2,86.8,22.5,126,20.6v2.5c-4.1.2-8.3.3-12.5.3Z"/>
      <path class="cls-4" d="M424,276.1c-28.7,21.7-85.8,14.9-103.5,52.1-53.7,112.8-99.6,26.9-146.6,17.6l-.4-2.3c47,3.9,97.5-2.2,145.9-17.5,43.8-13.9,82.8-34.5,112.9-59.7l1.6,2c-3.2,2.7-6.5,5.3-9.8,7.8Z"/>
      <ellipse class="cls-10" cx="111.8" cy="261" rx="7.5" ry="10.1"/>
      <ellipse class="cls-10" cx="345.3" cy="179" rx="7.5" ry="10.1"/>
      <path class="cls-10" d="M180.7,311.8c-3.4,2.3-7-3.2-3.5-5.4,3.4-2.3,7,3.2,3.5,5.4Z"/>
      <path class="cls-10" d="M308.1,132.7c-3.4,2.3-7-3.2-3.5-5.4,3.4-2.3,7,3.2,3.5,5.4Z"/>
      <polygon class="cls-10" points="383.2 238.9 381 238.5 381.5 236.3 380.1 235.9 379.6 238.1 377.4 237.7 377.1 239.1 379.3 239.6 378.8 241.8 380.2 242.1 380.7 239.9 382.9 240.4 383.2 238.9"/>
      <circle class="cls-2" cx="182.6" cy="156" r="9.5"/>
      <path class="cls-3" d="M252.3,143.9c-10.7.3-18.9,18.9-18.7,26.2l.4,13.1,38.9-1.1-.4-13.1c-.2-7.3-9.4-25.4-20.2-25.1Z"/>
      <path class="cls-3" d="M275.5,641.3l-17.7.5c-2.7.1-5.3-.6-7.6-2.1-1.9-1.4-2.8-3.4-2.4-5.3l3.5-17.5c.7-3.3,4.7-5.8,9.6-5.9l9.8-.3c4.9-.1,9.1,2.1,9.9,5.4l4.4,17.3c.5,1.9-.3,3.9-2.1,5.4-2.1,1.6-4.7,2.5-7.4,2.5Z"/>
      <rect class="cls-10" x="231.3" y="228.3" width="57.4" height="392.1" transform="translate(-11.6 7.3) rotate(-1.6)"/>
      <polyline class="cls-3" points="260.4 417.3 260.1 403.1 263.8 403 264.1 417.1 267.4 622.4 263.7 622.5"/>
      <path class="cls-10" d="M294.7,263.4l-77.8,2.1c-1.4-8.2.4-46.5,7.4-55l1.9-10.2,53.7-1.5,2.8,10c7.7,6.6,11.7,44.9,12,54.6Z"/>
      <path class="cls-10" d="M281.6,200.1l-55.4,1.5c-2,0-3.7-1-3.8-2.4,0-.2,0-.4,0-.6l8.6-26.5c.4-1.1,1.8-2,3.5-2l36.8-1c1.7,0,3.2.7,3.7,1.8l10.1,26c.5,1.3-.7,2.7-2.7,3.1-.3,0-.6,0-.9,0Z"/>
      <path class="cls-3" d="M231.6,415.5c-.5-.2-1-.5-1.4-.8-1.3-.9-2-2.3-2.1-3.9l-2-73c0-3,2.9-5.6,6.6-5.7l49.6-1.4c3.7-.1,6.8,2.3,6.9,5.3l2,73c0,1.5-.7,3-1.9,4-1.3,1.1-3,1.7-4.7,1.7l-49.6,1.4c-1.2,0-2.3-.2-3.4-.6Z"/>
      <path class="cls-8" d="M263.4,195.4l-16.8.5c-3.2,0-6-3.6-6.1-8.2s2.4-8.4,5.7-8.5l16.8-.5c3.2,0,6,3.6,6.1,8.2s-2.4,8.4-5.7,8.5Z"/>
      <path class="cls-10" d="M661.4,628.1h-19.6v-142.5c16.4-1.2,28.7-6.2,28.7-12.2s-16.2-12.5-36.1-12.5-36.1,5.6-36.1,12.5,12.6,11.1,29.2,12.2v142.4h-19.6c-3.9,0-7.1,3.2-7.1,7.1s3.2,7.1,7.1,7.1h53.5c3.9,0,7.1-3.2,7.1-7.1s-3.2-7.1-7.1-7.1Z"/>
      <polygon class="cls-6" points="622.1 555.7 615.7 562.8 585.5 541.3 595 530.9 622.1 555.7"/>
      <path class="cls-1" d="M605.6,574.3c.1,3.2,1.5,6.2,3.9,8.3l.3.3,8.4-9.2,12.3-13.4-9.1-8.3-1.6,1.8-.2.2-8.2,3.9-1.7.8h-.3c0,.1-.7,7.1-.7,7.1h0c-2.2,2.3-3.3,5.4-3.1,8.6Z"/>
      <polygon class="cls-6" points="655.5 625.7 646.3 628.5 631.3 594.7 644.8 590.6 655.5 625.7"/>
      <path class="cls-1" d="M631,642.4v.4c.1,0,29.5-8.9,29.5-8.9l-3.6-11.8-2.3.7h-.2c0,0-10.9-.9-10.9-.9h-.3s-4.1,5.7-4.1,5.7c-6.3,1.9-9.9,8.6-8,14.9h0Z"/>
      <path id="ad16ec3e-8c70-4d69-a6df-f9bf45b483f6-372" class="cls-1" d="M580.3,448.6s-58.2,56.2-21.4,73.6h11.4c2.5-8,6.3-15.6,11.2-22.4,1.1-1.4,5.1-1.1,6.2-2.5,6.8-8.4,14.2-15.5,19.3-15.3l-1.2,38.8-2,13.8c-1,7.2,28.3,69.6,28.3,69.6l18.4-7.2s-19.2-51.5-19.4-58.9l15.4-81.6-66.2-8Z"/>
      <path class="cls-8" d="M575.5,451.4c.3.4.7.8,1.1,1,.7.4,1.5.7,2.4.9,13.1,3,55.9,9.1,67,6.2,1.4-.4,2.3-.9,2.5-1.5.9-2.1.8-10.9.3-21.5,0-2-2.3-4.1-2.4-6.2,0-1.6,1.9-3,1.8-4.6-.7-10.7-1.7-21.7-2.3-28.6-.4-4.4-.7-7.2-.7-7.2l6.8-42.6-.3-.5-.4-.2-21.8-10.8-1.2-3c-.7-1.8-2.4-3-4.3-3h-14.4c-1.5,0-2.9.7-3.8,1.9l-3.9,5.4-25.7,16.5v.3c0,0,12.2,36.7,12.2,36.7v2.9c0,0,0,0,0,0l.4,23-1.2,3.1,1.4,5.1s-.6,6-4.1,10.4c-3.1,4-7.1,8.2-8.9,11.7h0c-1,1.9-1.3,3.5-.5,4.8Z"/>
      <path id="ef5568b9-6037-4ec0-9cfc-fa22633e4b80-373" class="cls-1" d="M556.1,518.8l3.1,3.9s28.6,20,29.6,21.9l4.5,4.3,10.9-11.7-5.7-7.1c-4.6-5.7-10.4-10.2-17.1-13.1h0l-8.7-7.7-16.6,9.6Z"/>
      <path class="cls-6" d="M659.1,464.7l-5.2-50.4-1.4-20.7,14.6-2.6s-.6,14.8,1.3,23.2c1.9,8.3.2,49.5.1,50.6,2.9,2.6,3.2,7.1.6,10-2.6,2.9-7.1,3.2-10,.6-2.9-2.6-3.2-7.1-.6-10,.2-.2.4-.4.6-.6Z"/>
      <path class="cls-8" d="M641.8,388.3l4.1,8.7,1.4,3,3.8,20,1.9,2,1.6,6.5.8-.2,13.9-2.9,4.1-.8c1.9-3.1,1.3-7.2-1.4-9.6-.3-.3-.5-.5-.5-.7.2-13.9-.6-39.3-8.3-49.7-2.4-3.3-3.9-6.6-6-8.9,0,0,0,0,0,0l-5.2-8.5-.3-.5-.4-.2-9.5,41.8Z"/>
      <circle id="af7fa85c-211d-4c02-a612-cf38cfa53f1c" class="cls-6" cx="617.9" cy="306.9" r="19.1"/>
      <path class="cls-1" d="M640.6,302.8c.6-3.2,1-7.4-.6-11.1-1.4-3.1-4.7-6-8.5-5.6.4-1.4-.1-2.9-1.2-3.9-1.2-1-2.7-1.6-4.2-2-3.5-1-7.2-2.1-11-2.1-4.2,0-8,1.4-10.3,4h0c0,0-.7,1.7-.7,1.7-.2.4-.6.8-1,.9-.5.2-1,0-1.4-.2-.7-.4-1.6-.2-2.1.5-.1.2-.2.5-.2.7v.7s-1-.4-1-.4c-.8-.3-1.6,0-2,.8-.1.3-.1.5,0,.8v.8c-.3,0-.7,0-1.1.3-.5.4-.7,1-.5,1.7.8,2.2,2.1,4.2,3.8,5.7.8.7,1.7,1.3,2.6,1.8.2,0,.4.2.6.3,7.6,3.3,15.8,5.1,24,5.4-.8,1.5-1.3,3.1-1.5,4.8-.2,1.9.6,3.8,2.2,4.9.3.2.7.4,1.1.5.4.1.7.3,1,.5,1.5.9,2,2.9,1.1,4.4-.3.5-.7.9-1.2,1.2,0,0,1.4,1.7,1.6,1.7.9-.2,1.7-.7,2.3-1.4,4.1-4,6.9-9.9,8.2-17.5Z"/>
      <path class="cls-4" d="M724.2,598l.8-18.7c8.7-4.6,18.3-7.1,28.1-7.1-13.5,11-11.8,32.3-21,47.2-5.9,9.3-15.6,15.5-26.6,16.8l-11.3,6.9c-3.1-17.5,1.5-35.5,12.8-49.2,3.2-3.8,6.8-7.1,10.8-10,2.7,7.1,6.3,14.2,6.3,14.2Z"/>
      <path class="cls-3" d="M345.6,504.2c-4.2.1-7.7-3.2-7.8-7.4l-.6-21.4c-.1-4.2,3.2-7.7,7.4-7.8,4.2-.1,7.7,3.2,7.8,7.4l.6,21.4c.1,4.2-3.2,7.7-7.4,7.8Z"/>
      <path class="cls-7" d="M679.6,582.4c-11.5,0-24.1-.4-37.8-1.3-70.9-4.5-162.8-20.2-258.7-44.1-95.9-23.9-184.4-53.3-249.1-82.6-31.5-14.3-55.7-27.8-71.9-40.2-17.1-13.1-24.7-24.6-22.3-34,4.6-18.4,45.2-22.4,78.5-22.5v2.7c-45.7.2-72.6,7.5-75.9,20.5-4.1,16.6,29.7,42.5,92.7,71.1,64.6,29.3,152.9,58.6,248.7,82.5,95.8,23.9,187.5,39.5,258.3,44,69.1,4.4,111.1-2.6,115.3-19.2,3.4-13.8-19.2-34.1-63.9-57.2l1.2-2.4c32.4,16.8,70.1,40.9,65.2,60.2-2.4,9.4-14.4,16-35.7,19.5-12.1,2-27.1,3-44.6,3Z"/>
      <path class="cls-7" d="M69,564.9c-9.1,0-15.1-2.3-17.7-6.8-5.2-8.9,3.5-24.5,25.8-46.4l1.9,1.9c-20.7,20.3-29.7,35.6-25.3,43.1,2.8,4.7,11,6.4,23.7,4.9,12.7-1.5,29.5-6,50-13.4,42.1-15.2,95-40.9,148.9-72.2,53.9-31.4,102.2-64.7,136.3-93.9,6.5-5.6,12.5-11,17.6-16,6.8-6.4,13-13.4,18.7-20.8,7.6-10.4,10.2-18.3,7.4-23.1-4.6-7.9-24-7.2-54.5,2.1l-.8-2.6c32.8-9.9,52.1-10.2,57.6-.9,3.4,5.8.8,14.6-7.6,26-5.8,7.5-12.1,14.6-19,21.2-5.2,5.1-11.2,10.5-17.7,16.1-34.1,29.3-82.7,62.7-136.7,94.1-54,31.4-107,57.2-149.3,72.4-20.7,7.5-37.7,12-50.6,13.6-2.9.4-5.8.5-8.7.6Z"/>
      <path class="cls-10" d="M556.8,455.1c-6.6-.1-42.1-1.2-47.9-.9-.3-1.2-11.4,13-11.6,13.1-.6.6-.6,1.7,0,2.3.1.1.3.2.5.3.6.4,57.9-.7,58.5-.5.6,0,1.2-.4,1.4-.9l.4-.9c0-1.5.5-9,0-10.2.4-.8,0-1.7-.8-2.1-.2,0-.4-.1-.6-.1Z"/>
      <path class="cls-5" d="M558.2,467.6c-.3.8-.8,1.8-1.8,1.8l-57.9.7c-.9,0-1.6-.7-1.6-1.6,0-.3,0-.5.2-.7h61.1Z"/>
      <path class="cls-10" d="M509.2,454c-.6-1.1-16.1-77.7-17.4-78.4l-10.6-12.9-.9-.7c-1.3-.7-4.5-.2-4.2,1.8h0c2.5,11.9,18.5,79.8,18.8,90.3l1.9,13.5c.1.9,1,1.5,1.9,1.4,0,0,.1,0,.2,0,1.1-.1,2.1-.8,2.6-1.9.1-.5,8.5-12.8,7.8-13.1Z"/>
      <path class="cls-5" d="M481.2,362.7l20.2,104.4c-.7,1.7-3.8,2.9-4.6.7,0,0-20.8-103.9-20.8-104-.2-2.5,3.9-2.6,5.1-1.1Z"/>
      <polygon class="cls-8" points="481.8 367 492.1 381.3 503.6 436.1 498.3 440.8 481.8 367"/>
      <path class="cls-1" d="M550.2,462.5h2.8c0-.7.2-1.5.4-2.3.4-2,.8-4.4-1-4.4-1.2-.1-1.6,1.4-1.8,3.1,0,1.2-.2,2.5-.5,3.7Z"/>
      <path class="cls-1" d="M533.9,458.7h1.9c0,0,.9.1.9.1,0-1,.5-3.1-.7-3.6-.2,0-.4-.1-.6-.1-1.1,0-1.4.8-1.5,1.7,0,.6,0,1.2,0,1.6,0,0,0,.2,0,.3Z"/>
      <path class="cls-1" d="M528.2,458.4h1.9c0,0,.9.1.9.1,0-1.2.6-3.7-1.3-3.8-1.7,0-1.5,2.1-1.6,3.4,0,0,0,.2,0,.3Z"/>
      <path class="cls-1" d="M522.6,458.2h1.9c0,0,.9.1.9.1,0-1.2.6-3.7-1.3-3.7-1.7-.1-1.5,2.1-1.6,3.4,0,0,0,.2,0,.3Z"/>
      <path class="cls-1" d="M516.9,458h1.9c0,0,.9.1.9.1,0-1.2.6-3.7-1.3-3.8-1.7,0-1.5,2.1-1.6,3.4,0,0,0,.2,0,.3Z"/>
      <path class="cls-1" d="M511.2,457.8h1.9c0,0,.9.1.9.1,0-1.1.5-3.3-.9-3.7h0c-.1,0-.3,0-.4,0-.2,0-.3,0-.5,0h0c-1.2.3-1,2.2-1.1,3.3,0,0,0,.2,0,.3Z"/>
      <path class="cls-1" d="M544.5,457.2h2.8s0-.1,0-.2c0-.7,0-1.4,0-2,0-.7-.4-1.3-1.3-1.4-.9,0-1.3.5-1.4,1.3,0,.1,0,.3,0,.4h0c0,.7,0,1.5,0,2Z"/>
      <path class="cls-1" d="M538.8,456.9h2.8c0-.6,0-1.4,0-2.2,0-.8-.4-1.4-1.3-1.4-.9,0-1.3.6-1.5,1.4-.1.8,0,1.7-.1,2.3Z"/>
      <path class="cls-1" d="M533.1,456.7h.8s2,.1,2,.1c0-.4,0-1.1,0-1.7,0-.2,0-.4,0-.6,0-.8-.4-1.5-1.3-1.5-1,0-1.3.6-1.5,1.5-.1.7,0,1.6-.1,2.2Z"/>
      <path class="cls-1" d="M544.5,462.3h2.8c0-1.1.6-3.6-1.3-3.6-1.9-.1-1.5,2.5-1.6,3.6Z"/>
      <path class="cls-1" d="M538.9,462h2.8c0-1.1.6-3.6-1.3-3.6-1.9-.1-1.5,2.5-1.6,3.6Z"/>
      <path class="cls-1" d="M533.2,461.8h2.8c0-.7.3-2.3-.2-3.1-.2-.4-.6-.6-1.1-.6-.3,0-.6,0-.8.2-.9.6-.7,2.5-.7,3.4Z"/>
      <path class="cls-1" d="M527.5,461.6h2.8c0-.7.3-2.2-.2-3.1-.2-.4-.6-.6-1.1-.6-.3,0-.6,0-.8.2-.9.6-.7,2.5-.7,3.4Z"/>
      <path class="cls-1" d="M521.8,461.4h2.8c0-.7.3-2.3-.2-3.1-.2-.4-.6-.6-1.1-.6-.3,0-.6,0-.8.2-.9.6-.7,2.5-.7,3.4Z"/>
      <path class="cls-1" d="M516.2,461.1h2.8c0-.7.3-2.2-.2-3.1-.2-.4-.6-.6-1.1-.6-.3,0-.6,0-.8.2-.9.6-.7,2.5-.7,3.4Z"/>
      <path class="cls-1" d="M510.5,460.9h2.8c0-.7.3-2.2-.2-3.1-.2-.4-.6-.6-1.1-.6-.3,0-.6,0-.8.2-.9.6-.7,2.5-.7,3.4Z"/>
      <path class="cls-6" d="M542.6,452.7l21.7-45.8,8.2-19.1-12.9-7.3s-4.4,14.2-9,21.4c-4.5,7.2-16.7,46.6-16.9,47.7-3.6,1.5-5.3,5.6-3.9,9.3,1.5,3.6,5.6,5.3,9.3,3.9s5.3-5.6,3.9-9.3c0-.2-.2-.5-.3-.7h0Z"/>
      <path class="cls-8" d="M542.4,410.3l16.4,9.9,3.7-5.6,2.5-1.3,10.2-17.6,9.1-9.2,12-38.2-15.6,2.3h0c-2.8,1.5-5.3,4.1-8.7,6.4-10.7,7.3-20,31-24.4,44.2,0,.2-.4.4-.7.5-3.4,1.4-5.3,5-4.5,8.6h0Z"/>
    </g>
  </g>
</svg>